<?xml version='1.0' encoding='ASCII' standalone='yes'?>
<svg xmlns="http://www.w3.org/2000/svg" xmlns:rdkit="http://www.rdkit.org/xml" xmlns:xlink="http://www.w3.org/1999/xlink" version="1.1" baseProfile="full" xml:space="preserve" width="450px" height="450px" viewBox="0 0 450 450">
<!-- END OF HEADER -->
<rect style="opacity:1.0;fill:#FFFFFF;stroke:none" width="450.0" height="450.0" x="0.0" y="0.0"> </rect>
<path class="bond-0 atom-0 atom-1" d="M 98.1,392.7 L 143.5,379.4" style="fill:none;fill-rule:evenodd;stroke:#000000;stroke-width:2.0px;stroke-linecap:butt;stroke-linejoin:miter;stroke-opacity:1"/>
<path class="bond-1 atom-1 atom-2" d="M 143.5,379.4 L 159.0,391.3" style="fill:none;fill-rule:evenodd;stroke:#000000;stroke-width:2.0px;stroke-linecap:butt;stroke-linejoin:miter;stroke-opacity:1"/>
<path class="bond-1 atom-1 atom-2" d="M 159.0,391.3 L 174.4,403.2" style="fill:none;fill-rule:evenodd;stroke:#0000FF;stroke-width:2.0px;stroke-linecap:butt;stroke-linejoin:miter;stroke-opacity:1"/>
<path class="bond-1 atom-1 atom-2" d="M 154.0,375.5 L 164.8,383.8" style="fill:none;fill-rule:evenodd;stroke:#000000;stroke-width:2.0px;stroke-linecap:butt;stroke-linejoin:miter;stroke-opacity:1"/>
<path class="bond-1 atom-1 atom-2" d="M 164.8,383.8 L 175.6,392.2" style="fill:none;fill-rule:evenodd;stroke:#0000FF;stroke-width:2.0px;stroke-linecap:butt;stroke-linejoin:miter;stroke-opacity:1"/>
<path class="bond-2 atom-2 atom-3" d="M 187.7,403.8 L 213.6,386.2" style="fill:none;fill-rule:evenodd;stroke:#0000FF;stroke-width:2.0px;stroke-linecap:butt;stroke-linejoin:miter;stroke-opacity:1"/>
<path class="bond-3 atom-3 atom-4" d="M 217.8,373.3 L 212.3,354.7" style="fill:none;fill-rule:evenodd;stroke:#0000FF;stroke-width:2.0px;stroke-linecap:butt;stroke-linejoin:miter;stroke-opacity:1"/>
<path class="bond-3 atom-3 atom-4" d="M 212.3,354.7 L 206.9,336.1" style="fill:none;fill-rule:evenodd;stroke:#000000;stroke-width:2.0px;stroke-linecap:butt;stroke-linejoin:miter;stroke-opacity:1"/>
<path class="bond-3 atom-3 atom-4" d="M 207.1,370.4 L 203.2,357.4" style="fill:none;fill-rule:evenodd;stroke:#0000FF;stroke-width:2.0px;stroke-linecap:butt;stroke-linejoin:miter;stroke-opacity:1"/>
<path class="bond-3 atom-3 atom-4" d="M 203.2,357.4 L 199.4,344.4" style="fill:none;fill-rule:evenodd;stroke:#000000;stroke-width:2.0px;stroke-linecap:butt;stroke-linejoin:miter;stroke-opacity:1"/>
<path class="bond-4 atom-4 atom-5" d="M 206.9,336.1 L 237.5,299.9" style="fill:none;fill-rule:evenodd;stroke:#000000;stroke-width:2.0px;stroke-linecap:butt;stroke-linejoin:miter;stroke-opacity:1"/>
<path class="bond-5 atom-5 atom-6" d="M 237.5,299.9 L 284.6,307.2 L 282.2,316.4 Z" style="fill:#000000;fill-rule:evenodd;fill-opacity:1;stroke:#000000;stroke-width:1.0px;stroke-linecap:butt;stroke-linejoin:miter;stroke-opacity:1;"/>
<path class="bond-6 atom-6 atom-7" d="M 283.4,311.8 L 316.6,278.0" style="fill:none;fill-rule:evenodd;stroke:#000000;stroke-width:2.0px;stroke-linecap:butt;stroke-linejoin:miter;stroke-opacity:1"/>
<path class="bond-7 atom-7 atom-8" d="M 312.1,279.3 L 306.9,260.7" style="fill:none;fill-rule:evenodd;stroke:#000000;stroke-width:2.0px;stroke-linecap:butt;stroke-linejoin:miter;stroke-opacity:1"/>
<path class="bond-7 atom-7 atom-8" d="M 306.9,260.7 L 301.8,242.2" style="fill:none;fill-rule:evenodd;stroke:#FF0000;stroke-width:2.0px;stroke-linecap:butt;stroke-linejoin:miter;stroke-opacity:1"/>
<path class="bond-7 atom-7 atom-8" d="M 321.2,276.8 L 316.0,258.2" style="fill:none;fill-rule:evenodd;stroke:#000000;stroke-width:2.0px;stroke-linecap:butt;stroke-linejoin:miter;stroke-opacity:1"/>
<path class="bond-7 atom-7 atom-8" d="M 316.0,258.2 L 310.9,239.6" style="fill:none;fill-rule:evenodd;stroke:#FF0000;stroke-width:2.0px;stroke-linecap:butt;stroke-linejoin:miter;stroke-opacity:1"/>
<path class="bond-8 atom-7 atom-9" d="M 316.6,278.0 L 335.7,283.0" style="fill:none;fill-rule:evenodd;stroke:#000000;stroke-width:2.0px;stroke-linecap:butt;stroke-linejoin:miter;stroke-opacity:1"/>
<path class="bond-8 atom-7 atom-9" d="M 335.7,283.0 L 354.8,287.9" style="fill:none;fill-rule:evenodd;stroke:#FF0000;stroke-width:2.0px;stroke-linecap:butt;stroke-linejoin:miter;stroke-opacity:1"/>
<path class="bond-9 atom-9 atom-10" d="M 370.2,282.0 L 383.0,269.1" style="fill:none;fill-rule:evenodd;stroke:#FF0000;stroke-width:2.0px;stroke-linecap:butt;stroke-linejoin:miter;stroke-opacity:1"/>
<path class="bond-9 atom-9 atom-10" d="M 383.0,269.1 L 395.7,256.1" style="fill:none;fill-rule:evenodd;stroke:#000000;stroke-width:2.0px;stroke-linecap:butt;stroke-linejoin:miter;stroke-opacity:1"/>
<path class="bond-10 atom-10 atom-11" d="M 395.7,256.1 L 429.5,289.3" style="fill:none;fill-rule:evenodd;stroke:#000000;stroke-width:2.0px;stroke-linecap:butt;stroke-linejoin:miter;stroke-opacity:1"/>
<path class="bond-11 atom-10 atom-12" d="M 395.7,256.1 L 361.9,222.9" style="fill:none;fill-rule:evenodd;stroke:#000000;stroke-width:2.0px;stroke-linecap:butt;stroke-linejoin:miter;stroke-opacity:1"/>
<path class="bond-12 atom-10 atom-13" d="M 395.7,256.1 L 429.0,222.3" style="fill:none;fill-rule:evenodd;stroke:#000000;stroke-width:2.0px;stroke-linecap:butt;stroke-linejoin:miter;stroke-opacity:1"/>
<path class="bond-13 atom-5 atom-14" d="M 237.5,299.9 L 233.7,280.8" style="fill:none;fill-rule:evenodd;stroke:#000000;stroke-width:2.0px;stroke-linecap:butt;stroke-linejoin:miter;stroke-opacity:1"/>
<path class="bond-13 atom-5 atom-14" d="M 233.7,280.8 L 229.9,261.7" style="fill:none;fill-rule:evenodd;stroke:#0000FF;stroke-width:2.0px;stroke-linecap:butt;stroke-linejoin:miter;stroke-opacity:1"/>
<path class="bond-14 atom-14 atom-15" d="M 221.6,250.0 L 203.9,240.8" style="fill:none;fill-rule:evenodd;stroke:#0000FF;stroke-width:2.0px;stroke-linecap:butt;stroke-linejoin:miter;stroke-opacity:1"/>
<path class="bond-14 atom-14 atom-15" d="M 203.9,240.8 L 186.2,231.7" style="fill:none;fill-rule:evenodd;stroke:#000000;stroke-width:2.0px;stroke-linecap:butt;stroke-linejoin:miter;stroke-opacity:1"/>
<path class="bond-14 atom-14 atom-15" d="M 212.0,255.7 L 199.6,249.2" style="fill:none;fill-rule:evenodd;stroke:#0000FF;stroke-width:2.0px;stroke-linecap:butt;stroke-linejoin:miter;stroke-opacity:1"/>
<path class="bond-14 atom-14 atom-15" d="M 199.6,249.2 L 187.1,242.8" style="fill:none;fill-rule:evenodd;stroke:#000000;stroke-width:2.0px;stroke-linecap:butt;stroke-linejoin:miter;stroke-opacity:1"/>
<path class="bond-15 atom-15 atom-16" d="M 186.2,231.7 L 142.9,251.0" style="fill:none;fill-rule:evenodd;stroke:#000000;stroke-width:2.0px;stroke-linecap:butt;stroke-linejoin:miter;stroke-opacity:1"/>
<path class="bond-16 atom-16 atom-17" d="M 142.9,251.0 L 102.9,225.5" style="fill:none;fill-rule:evenodd;stroke:#000000;stroke-width:2.0px;stroke-linecap:butt;stroke-linejoin:miter;stroke-opacity:1"/>
<path class="bond-17 atom-17 atom-18" d="M 102.9,225.5 L 100.0,178.2" style="fill:none;fill-rule:evenodd;stroke:#000000;stroke-width:2.0px;stroke-linecap:butt;stroke-linejoin:miter;stroke-opacity:1"/>
<path class="bond-18 atom-17 atom-19" d="M 102.9,225.5 L 66.3,255.6" style="fill:none;fill-rule:evenodd;stroke:#000000;stroke-width:2.0px;stroke-linecap:butt;stroke-linejoin:miter;stroke-opacity:1"/>
<path class="bond-18 atom-17 atom-19" d="M 103.5,237.3 L 77.9,258.4" style="fill:none;fill-rule:evenodd;stroke:#000000;stroke-width:2.0px;stroke-linecap:butt;stroke-linejoin:miter;stroke-opacity:1"/>
<path class="bond-19 atom-19 atom-20" d="M 66.3,255.6 L 20.5,243.8" style="fill:none;fill-rule:evenodd;stroke:#000000;stroke-width:2.0px;stroke-linecap:butt;stroke-linejoin:miter;stroke-opacity:1"/>
<path class="bond-20 atom-19 atom-21" d="M 66.3,255.6 L 73.4,273.6" style="fill:none;fill-rule:evenodd;stroke:#000000;stroke-width:2.0px;stroke-linecap:butt;stroke-linejoin:miter;stroke-opacity:1"/>
<path class="bond-20 atom-19 atom-21" d="M 73.4,273.6 L 80.5,291.5" style="fill:none;fill-rule:evenodd;stroke:#CCCC00;stroke-width:2.0px;stroke-linecap:butt;stroke-linejoin:miter;stroke-opacity:1"/>
<path class="bond-21 atom-21 atom-22" d="M 89.6,299.4 L 110.3,298.1" style="fill:none;fill-rule:evenodd;stroke:#CCCC00;stroke-width:2.0px;stroke-linecap:butt;stroke-linejoin:miter;stroke-opacity:1"/>
<path class="bond-21 atom-21 atom-22" d="M 110.3,298.1 L 131.0,296.9" style="fill:none;fill-rule:evenodd;stroke:#000000;stroke-width:2.0px;stroke-linecap:butt;stroke-linejoin:miter;stroke-opacity:1"/>
<path class="bond-22 atom-22 atom-23" d="M 131.0,296.9 L 142.1,311.7" style="fill:none;fill-rule:evenodd;stroke:#000000;stroke-width:2.0px;stroke-linecap:butt;stroke-linejoin:miter;stroke-opacity:1"/>
<path class="bond-22 atom-22 atom-23" d="M 142.1,311.7 L 153.3,326.5" style="fill:none;fill-rule:evenodd;stroke:#0000FF;stroke-width:2.0px;stroke-linecap:butt;stroke-linejoin:miter;stroke-opacity:1"/>
<path class="bond-23 atom-15 atom-24" d="M 186.2,231.7 L 187.6,184.3" style="fill:none;fill-rule:evenodd;stroke:#000000;stroke-width:2.0px;stroke-linecap:butt;stroke-linejoin:miter;stroke-opacity:1"/>
<path class="bond-24 atom-24 atom-25" d="M 187.6,184.3 L 229.3,161.8" style="fill:none;fill-rule:evenodd;stroke:#000000;stroke-width:2.0px;stroke-linecap:butt;stroke-linejoin:miter;stroke-opacity:1"/>
<path class="bond-24 atom-24 atom-25" d="M 189.3,172.5 L 218.5,156.8" style="fill:none;fill-rule:evenodd;stroke:#000000;stroke-width:2.0px;stroke-linecap:butt;stroke-linejoin:miter;stroke-opacity:1"/>
<path class="bond-25 atom-25 atom-26" d="M 229.3,161.8 L 230.7,114.4" style="fill:none;fill-rule:evenodd;stroke:#000000;stroke-width:2.0px;stroke-linecap:butt;stroke-linejoin:miter;stroke-opacity:1"/>
<path class="bond-26 atom-26 atom-27" d="M 230.7,114.4 L 190.3,89.5" style="fill:none;fill-rule:evenodd;stroke:#000000;stroke-width:2.0px;stroke-linecap:butt;stroke-linejoin:miter;stroke-opacity:1"/>
<path class="bond-26 atom-26 atom-27" d="M 219.6,118.7 L 191.4,101.3" style="fill:none;fill-rule:evenodd;stroke:#000000;stroke-width:2.0px;stroke-linecap:butt;stroke-linejoin:miter;stroke-opacity:1"/>
<path class="bond-27 atom-27 atom-28" d="M 190.3,89.5 L 190.9,70.3" style="fill:none;fill-rule:evenodd;stroke:#000000;stroke-width:2.0px;stroke-linecap:butt;stroke-linejoin:miter;stroke-opacity:1"/>
<path class="bond-27 atom-27 atom-28" d="M 190.9,70.3 L 191.4,51.0" style="fill:none;fill-rule:evenodd;stroke:#00CC00;stroke-width:2.0px;stroke-linecap:butt;stroke-linejoin:miter;stroke-opacity:1"/>
<path class="bond-28 atom-27 atom-29" d="M 190.3,89.5 L 148.6,112.0" style="fill:none;fill-rule:evenodd;stroke:#000000;stroke-width:2.0px;stroke-linecap:butt;stroke-linejoin:miter;stroke-opacity:1"/>
<path class="bond-29 atom-29 atom-30" d="M 148.6,112.0 L 147.2,159.4" style="fill:none;fill-rule:evenodd;stroke:#000000;stroke-width:2.0px;stroke-linecap:butt;stroke-linejoin:miter;stroke-opacity:1"/>
<path class="bond-29 atom-29 atom-30" d="M 157.9,119.4 L 156.9,152.6" style="fill:none;fill-rule:evenodd;stroke:#000000;stroke-width:2.0px;stroke-linecap:butt;stroke-linejoin:miter;stroke-opacity:1"/>
<path class="bond-30 atom-23 atom-1" d="M 156.5,343.0 L 150.0,361.2" style="fill:none;fill-rule:evenodd;stroke:#0000FF;stroke-width:2.0px;stroke-linecap:butt;stroke-linejoin:miter;stroke-opacity:1"/>
<path class="bond-30 atom-23 atom-1" d="M 150.0,361.2 L 143.5,379.4" style="fill:none;fill-rule:evenodd;stroke:#000000;stroke-width:2.0px;stroke-linecap:butt;stroke-linejoin:miter;stroke-opacity:1"/>
<path class="bond-31 atom-30 atom-24" d="M 147.2,159.4 L 187.6,184.3" style="fill:none;fill-rule:evenodd;stroke:#000000;stroke-width:2.0px;stroke-linecap:butt;stroke-linejoin:miter;stroke-opacity:1"/>
<path class="bond-32 atom-23 atom-4" d="M 166.1,335.0 L 186.5,335.5" style="fill:none;fill-rule:evenodd;stroke:#0000FF;stroke-width:2.0px;stroke-linecap:butt;stroke-linejoin:miter;stroke-opacity:1"/>
<path class="bond-32 atom-23 atom-4" d="M 186.5,335.5 L 206.9,336.1" style="fill:none;fill-rule:evenodd;stroke:#000000;stroke-width:2.0px;stroke-linecap:butt;stroke-linejoin:miter;stroke-opacity:1"/>
<path class="bond-33 atom-22 atom-16" d="M 131.0,296.9 L 142.9,251.0" style="fill:none;fill-rule:evenodd;stroke:#000000;stroke-width:2.0px;stroke-linecap:butt;stroke-linejoin:miter;stroke-opacity:1"/>
<path class="bond-33 atom-22 atom-16" d="M 123.6,287.6 L 131.9,255.5" style="fill:none;fill-rule:evenodd;stroke:#000000;stroke-width:2.0px;stroke-linecap:butt;stroke-linejoin:miter;stroke-opacity:1"/>
<path class="atom-2" d="M 178.1 401.7 L 182.5 408.8 Q 182.9 409.5, 183.6 410.7 Q 184.3 412.0, 184.4 412.1 L 184.4 401.7 L 186.2 401.7 L 186.2 415.1 L 184.3 415.1 L 179.6 407.3 Q 179.1 406.4, 178.5 405.4 Q 177.9 404.3, 177.7 404.0 L 177.7 415.1 L 176.0 415.1 L 176.0 401.7 L 178.1 401.7 " fill="#0000FF"/>
<path class="atom-3" d="M 217.2 374.9 L 221.6 382.0 Q 222.1 382.7, 222.8 384.0 Q 223.5 385.3, 223.5 385.3 L 223.5 374.9 L 225.3 374.9 L 225.3 388.3 L 223.5 388.3 L 218.7 380.6 Q 218.2 379.7, 217.6 378.6 Q 217.0 377.6, 216.9 377.2 L 216.9 388.3 L 215.1 388.3 L 215.1 374.9 L 217.2 374.9 " fill="#0000FF"/>
<path class="atom-8" d="M 297.8 232.4 Q 297.8 229.2, 299.4 227.4 Q 301.0 225.6, 304.0 225.6 Q 306.9 225.6, 308.5 227.4 Q 310.1 229.2, 310.1 232.4 Q 310.1 235.6, 308.5 237.5 Q 306.9 239.3, 304.0 239.3 Q 301.0 239.3, 299.4 237.5 Q 297.8 235.7, 297.8 232.4 M 304.0 237.8 Q 306.0 237.8, 307.1 236.5 Q 308.2 235.1, 308.2 232.4 Q 308.2 229.7, 307.1 228.4 Q 306.0 227.1, 304.0 227.1 Q 301.9 227.1, 300.8 228.4 Q 299.7 229.7, 299.7 232.4 Q 299.7 235.1, 300.8 236.5 Q 301.9 237.8, 304.0 237.8 " fill="#FF0000"/>
<path class="atom-9" d="M 356.3 289.9 Q 356.3 286.7, 357.9 284.9 Q 359.5 283.1, 362.5 283.1 Q 365.5 283.1, 367.1 284.9 Q 368.7 286.7, 368.7 289.9 Q 368.7 293.2, 367.1 295.1 Q 365.4 296.9, 362.5 296.9 Q 359.6 296.9, 357.9 295.1 Q 356.3 293.2, 356.3 289.9 M 362.5 295.4 Q 364.6 295.4, 365.7 294.0 Q 366.8 292.6, 366.8 289.9 Q 366.8 287.3, 365.7 286.0 Q 364.6 284.6, 362.5 284.6 Q 360.5 284.6, 359.3 286.0 Q 358.2 287.3, 358.2 289.9 Q 358.2 292.7, 359.3 294.0 Q 360.5 295.4, 362.5 295.4 " fill="#FF0000"/>
<path class="atom-14" d="M 225.3 246.7 L 229.7 253.8 Q 230.2 254.5, 230.9 255.8 Q 231.6 257.1, 231.6 257.2 L 231.6 246.7 L 233.4 246.7 L 233.4 260.2 L 231.5 260.2 L 226.8 252.4 Q 226.3 251.5, 225.7 250.4 Q 225.1 249.4, 224.9 249.1 L 224.9 260.2 L 223.2 260.2 L 223.2 246.7 L 225.3 246.7 " fill="#0000FF"/>
<path class="atom-21" d="M 79.9 304.4 Q 80.1 304.4, 80.7 304.7 Q 81.3 304.9, 82.0 305.1 Q 82.7 305.3, 83.4 305.3 Q 84.7 305.3, 85.4 304.7 Q 86.1 304.0, 86.1 303.0 Q 86.1 302.2, 85.8 301.8 Q 85.4 301.3, 84.8 301.1 Q 84.3 300.8, 83.3 300.5 Q 82.1 300.2, 81.4 299.8 Q 80.7 299.5, 80.2 298.8 Q 79.7 298.0, 79.7 296.8 Q 79.7 295.1, 80.8 294.1 Q 82.0 293.1, 84.3 293.1 Q 85.8 293.1, 87.6 293.8 L 87.1 295.3 Q 85.5 294.6, 84.3 294.6 Q 83.0 294.6, 82.3 295.1 Q 81.6 295.7, 81.6 296.6 Q 81.6 297.3, 81.9 297.8 Q 82.3 298.2, 82.9 298.4 Q 83.4 298.7, 84.3 299.0 Q 85.5 299.3, 86.2 299.7 Q 87.0 300.1, 87.5 300.9 Q 88.0 301.6, 88.0 303.0 Q 88.0 304.8, 86.8 305.8 Q 85.5 306.8, 83.5 306.8 Q 82.3 306.8, 81.4 306.5 Q 80.5 306.3, 79.4 305.9 L 79.9 304.4 " fill="#CCCC00"/>
<path class="atom-23" d="M 156.5 328.1 L 160.9 335.2 Q 161.4 335.9, 162.1 337.1 Q 162.8 338.4, 162.8 338.5 L 162.8 328.1 L 164.6 328.1 L 164.6 341.5 L 162.7 341.5 L 158.0 333.7 Q 157.5 332.8, 156.9 331.8 Q 156.3 330.7, 156.1 330.4 L 156.1 341.5 L 154.4 341.5 L 154.4 328.1 L 156.5 328.1 " fill="#0000FF"/>
<path class="atom-28" d="M 186.5 42.6 Q 186.5 39.2, 188.1 37.5 Q 189.6 35.7, 192.6 35.7 Q 195.4 35.7, 196.9 37.7 L 195.6 38.7 Q 194.5 37.3, 192.6 37.3 Q 190.6 37.3, 189.5 38.7 Q 188.4 40.0, 188.4 42.6 Q 188.4 45.2, 189.5 46.6 Q 190.7 48.0, 192.8 48.0 Q 194.3 48.0, 196.0 47.1 L 196.5 48.5 Q 195.8 49.0, 194.8 49.2 Q 193.7 49.5, 192.5 49.5 Q 189.6 49.5, 188.1 47.7 Q 186.5 45.9, 186.5 42.6 " fill="#00CC00"/>
<path class="atom-28" d="M 197.6 34.9 L 199.4 34.9 L 199.4 49.3 L 197.6 49.3 L 197.6 34.9 " fill="#00CC00"/>
<text x="110" y="440" font-size="16" font-family="Verdana" font-weight="normal" letter-spacing="0" text-anchor="start" fill="black">46907787 PubChem ID</text></svg>
