<?xml version='1.0' encoding='ASCII' standalone='yes'?>
<svg xmlns="http://www.w3.org/2000/svg" xmlns:rdkit="http://www.rdkit.org/xml" xmlns:xlink="http://www.w3.org/1999/xlink" version="1.1" baseProfile="full" xml:space="preserve" width="450px" height="450px" viewBox="0 0 450 450">
<!-- END OF HEADER -->
<rect style="opacity:1.0;fill:#FFFFFF;stroke:none" width="450.0" height="450.0" x="0.0" y="0.0"> </rect>
<path class="bond-0 atom-0 atom-1" d="M 416.7,246.0 L 396.4,241.1" style="fill:none;fill-rule:evenodd;stroke:#000000;stroke-width:2.0px;stroke-linecap:butt;stroke-linejoin:miter;stroke-opacity:1"/>
<path class="bond-1 atom-1 atom-2" d="M 396.4,241.1 L 395.2,262.0" style="fill:none;fill-rule:evenodd;stroke:#000000;stroke-width:2.0px;stroke-linecap:butt;stroke-linejoin:miter;stroke-opacity:1"/>
<path class="bond-2 atom-1 atom-3" d="M 396.4,241.1 L 375.7,243.5" style="fill:none;fill-rule:evenodd;stroke:#000000;stroke-width:2.0px;stroke-linecap:butt;stroke-linejoin:miter;stroke-opacity:1"/>
<path class="bond-3 atom-3 atom-4" d="M 375.7,243.5 L 363.2,226.8" style="fill:none;fill-rule:evenodd;stroke:#000000;stroke-width:2.0px;stroke-linecap:butt;stroke-linejoin:miter;stroke-opacity:1"/>
<path class="bond-4 atom-4 atom-5" d="M 363.2,226.8 L 371.5,207.6" style="fill:none;fill-rule:evenodd;stroke:#000000;stroke-width:2.0px;stroke-linecap:butt;stroke-linejoin:miter;stroke-opacity:1"/>
<path class="bond-5 atom-5 atom-6" d="M 371.5,207.6 L 359.1,190.9" style="fill:none;fill-rule:evenodd;stroke:#000000;stroke-width:2.0px;stroke-linecap:butt;stroke-linejoin:miter;stroke-opacity:1"/>
<path class="bond-6 atom-6 atom-7" d="M 359.1,190.9 L 350.2,191.9" style="fill:none;fill-rule:evenodd;stroke:#000000;stroke-width:2.0px;stroke-linecap:butt;stroke-linejoin:miter;stroke-opacity:1"/>
<path class="bond-6 atom-6 atom-7" d="M 350.2,191.9 L 341.3,192.9" style="fill:none;fill-rule:evenodd;stroke:#0000FF;stroke-width:2.0px;stroke-linecap:butt;stroke-linejoin:miter;stroke-opacity:1"/>
<path class="bond-7 atom-7 atom-8" d="M 335.6,189.6 L 330.8,183.1" style="fill:none;fill-rule:evenodd;stroke:#0000FF;stroke-width:2.0px;stroke-linecap:butt;stroke-linejoin:miter;stroke-opacity:1"/>
<path class="bond-7 atom-7 atom-8" d="M 330.8,183.1 L 325.9,176.5" style="fill:none;fill-rule:evenodd;stroke:#000000;stroke-width:2.0px;stroke-linecap:butt;stroke-linejoin:miter;stroke-opacity:1"/>
<path class="bond-8 atom-8 atom-9" d="M 325.9,176.5 L 305.1,178.9" style="fill:none;fill-rule:evenodd;stroke:#000000;stroke-width:2.0px;stroke-linecap:butt;stroke-linejoin:miter;stroke-opacity:1"/>
<path class="bond-9 atom-9 atom-10" d="M 305.1,178.9 L 301.8,186.7" style="fill:none;fill-rule:evenodd;stroke:#000000;stroke-width:2.0px;stroke-linecap:butt;stroke-linejoin:miter;stroke-opacity:1"/>
<path class="bond-9 atom-9 atom-10" d="M 301.8,186.7 L 298.4,194.4" style="fill:none;fill-rule:evenodd;stroke:#0000FF;stroke-width:2.0px;stroke-linecap:butt;stroke-linejoin:miter;stroke-opacity:1"/>
<path class="bond-10 atom-10 atom-11" d="M 299.6,201.7 L 304.4,208.3" style="fill:none;fill-rule:evenodd;stroke:#0000FF;stroke-width:2.0px;stroke-linecap:butt;stroke-linejoin:miter;stroke-opacity:1"/>
<path class="bond-10 atom-10 atom-11" d="M 304.4,208.3 L 309.3,214.8" style="fill:none;fill-rule:evenodd;stroke:#000000;stroke-width:2.0px;stroke-linecap:butt;stroke-linejoin:miter;stroke-opacity:1"/>
<path class="bond-11 atom-11 atom-12" d="M 309.3,214.8 L 330.1,212.4" style="fill:none;fill-rule:evenodd;stroke:#000000;stroke-width:2.0px;stroke-linecap:butt;stroke-linejoin:miter;stroke-opacity:1"/>
<path class="bond-12 atom-10 atom-13" d="M 293.9,198.4 L 285.0,199.5" style="fill:none;fill-rule:evenodd;stroke:#0000FF;stroke-width:2.0px;stroke-linecap:butt;stroke-linejoin:miter;stroke-opacity:1"/>
<path class="bond-12 atom-10 atom-13" d="M 285.0,199.5 L 276.1,200.5" style="fill:none;fill-rule:evenodd;stroke:#000000;stroke-width:2.0px;stroke-linecap:butt;stroke-linejoin:miter;stroke-opacity:1"/>
<path class="bond-13 atom-13 atom-14" d="M 276.1,200.5 L 263.7,183.8" style="fill:none;fill-rule:evenodd;stroke:#000000;stroke-width:2.0px;stroke-linecap:butt;stroke-linejoin:miter;stroke-opacity:1"/>
<path class="bond-13 atom-13 atom-14" d="M 270.9,200.5 L 262.2,188.8" style="fill:none;fill-rule:evenodd;stroke:#000000;stroke-width:2.0px;stroke-linecap:butt;stroke-linejoin:miter;stroke-opacity:1"/>
<path class="bond-14 atom-14 atom-15" d="M 263.7,183.8 L 242.9,186.2" style="fill:none;fill-rule:evenodd;stroke:#000000;stroke-width:2.0px;stroke-linecap:butt;stroke-linejoin:miter;stroke-opacity:1"/>
<path class="bond-15 atom-15 atom-16" d="M 242.9,186.2 L 234.7,205.3" style="fill:none;fill-rule:evenodd;stroke:#000000;stroke-width:2.0px;stroke-linecap:butt;stroke-linejoin:miter;stroke-opacity:1"/>
<path class="bond-15 atom-15 atom-16" d="M 245.5,190.7 L 239.7,204.1" style="fill:none;fill-rule:evenodd;stroke:#000000;stroke-width:2.0px;stroke-linecap:butt;stroke-linejoin:miter;stroke-opacity:1"/>
<path class="bond-16 atom-16 atom-17" d="M 234.7,205.3 L 213.9,207.7" style="fill:none;fill-rule:evenodd;stroke:#000000;stroke-width:2.0px;stroke-linecap:butt;stroke-linejoin:miter;stroke-opacity:1"/>
<path class="bond-17 atom-17 atom-18" d="M 215.9,208.6 L 212.5,216.3" style="fill:none;fill-rule:evenodd;stroke:#000000;stroke-width:2.0px;stroke-linecap:butt;stroke-linejoin:miter;stroke-opacity:1"/>
<path class="bond-17 atom-17 atom-18" d="M 212.5,216.3 L 209.2,224.0" style="fill:none;fill-rule:evenodd;stroke:#FF0000;stroke-width:2.0px;stroke-linecap:butt;stroke-linejoin:miter;stroke-opacity:1"/>
<path class="bond-17 atom-17 atom-18" d="M 212.0,206.9 L 208.7,214.6" style="fill:none;fill-rule:evenodd;stroke:#000000;stroke-width:2.0px;stroke-linecap:butt;stroke-linejoin:miter;stroke-opacity:1"/>
<path class="bond-17 atom-17 atom-18" d="M 208.7,214.6 L 205.3,222.4" style="fill:none;fill-rule:evenodd;stroke:#FF0000;stroke-width:2.0px;stroke-linecap:butt;stroke-linejoin:miter;stroke-opacity:1"/>
<path class="bond-18 atom-17 atom-19" d="M 213.9,207.7 L 209.1,201.2" style="fill:none;fill-rule:evenodd;stroke:#000000;stroke-width:2.0px;stroke-linecap:butt;stroke-linejoin:miter;stroke-opacity:1"/>
<path class="bond-18 atom-17 atom-19" d="M 209.1,201.2 L 204.2,194.6" style="fill:none;fill-rule:evenodd;stroke:#0000FF;stroke-width:2.0px;stroke-linecap:butt;stroke-linejoin:miter;stroke-opacity:1"/>
<path class="bond-19 atom-19 atom-20" d="M 198.6,191.3 L 190.9,192.2" style="fill:none;fill-rule:evenodd;stroke:#0000FF;stroke-width:2.0px;stroke-linecap:butt;stroke-linejoin:miter;stroke-opacity:1"/>
<path class="bond-19 atom-19 atom-20" d="M 190.9,192.2 L 183.3,193.1" style="fill:none;fill-rule:evenodd;stroke:#CCCC00;stroke-width:2.0px;stroke-linecap:butt;stroke-linejoin:miter;stroke-opacity:1"/>
<path class="bond-20 atom-20 atom-21" d="M 183.3,196.9 L 184.0,203.6" style="fill:none;fill-rule:evenodd;stroke:#CCCC00;stroke-width:2.0px;stroke-linecap:butt;stroke-linejoin:miter;stroke-opacity:1"/>
<path class="bond-20 atom-20 atom-21" d="M 184.0,203.6 L 184.8,210.2" style="fill:none;fill-rule:evenodd;stroke:#FF0000;stroke-width:2.0px;stroke-linecap:butt;stroke-linejoin:miter;stroke-opacity:1"/>
<path class="bond-20 atom-20 atom-21" d="M 179.1,197.4 L 179.9,204.0" style="fill:none;fill-rule:evenodd;stroke:#CCCC00;stroke-width:2.0px;stroke-linecap:butt;stroke-linejoin:miter;stroke-opacity:1"/>
<path class="bond-20 atom-20 atom-21" d="M 179.9,204.0 L 180.7,210.7" style="fill:none;fill-rule:evenodd;stroke:#FF0000;stroke-width:2.0px;stroke-linecap:butt;stroke-linejoin:miter;stroke-opacity:1"/>
<path class="bond-21 atom-20 atom-22" d="M 178.3,190.0 L 177.5,183.3" style="fill:none;fill-rule:evenodd;stroke:#CCCC00;stroke-width:2.0px;stroke-linecap:butt;stroke-linejoin:miter;stroke-opacity:1"/>
<path class="bond-21 atom-20 atom-22" d="M 177.5,183.3 L 176.7,176.7" style="fill:none;fill-rule:evenodd;stroke:#FF0000;stroke-width:2.0px;stroke-linecap:butt;stroke-linejoin:miter;stroke-opacity:1"/>
<path class="bond-21 atom-20 atom-22" d="M 182.4,189.5 L 181.6,182.8" style="fill:none;fill-rule:evenodd;stroke:#CCCC00;stroke-width:2.0px;stroke-linecap:butt;stroke-linejoin:miter;stroke-opacity:1"/>
<path class="bond-21 atom-20 atom-22" d="M 181.6,182.8 L 180.9,176.2" style="fill:none;fill-rule:evenodd;stroke:#FF0000;stroke-width:2.0px;stroke-linecap:butt;stroke-linejoin:miter;stroke-opacity:1"/>
<path class="bond-22 atom-20 atom-23" d="M 178.2,193.7 L 169.1,194.7" style="fill:none;fill-rule:evenodd;stroke:#CCCC00;stroke-width:2.0px;stroke-linecap:butt;stroke-linejoin:miter;stroke-opacity:1"/>
<path class="bond-22 atom-20 atom-23" d="M 169.1,194.7 L 160.0,195.8" style="fill:none;fill-rule:evenodd;stroke:#000000;stroke-width:2.0px;stroke-linecap:butt;stroke-linejoin:miter;stroke-opacity:1"/>
<path class="bond-23 atom-23 atom-24" d="M 160.0,195.8 L 147.6,179.0" style="fill:none;fill-rule:evenodd;stroke:#000000;stroke-width:2.0px;stroke-linecap:butt;stroke-linejoin:miter;stroke-opacity:1"/>
<path class="bond-23 atom-23 atom-24" d="M 154.8,195.8 L 146.1,184.0" style="fill:none;fill-rule:evenodd;stroke:#000000;stroke-width:2.0px;stroke-linecap:butt;stroke-linejoin:miter;stroke-opacity:1"/>
<path class="bond-24 atom-24 atom-25" d="M 147.6,179.0 L 126.8,181.4" style="fill:none;fill-rule:evenodd;stroke:#000000;stroke-width:2.0px;stroke-linecap:butt;stroke-linejoin:miter;stroke-opacity:1"/>
<path class="bond-25 atom-25 atom-26" d="M 126.8,181.4 L 118.6,200.6" style="fill:none;fill-rule:evenodd;stroke:#000000;stroke-width:2.0px;stroke-linecap:butt;stroke-linejoin:miter;stroke-opacity:1"/>
<path class="bond-25 atom-25 atom-26" d="M 129.4,186.0 L 123.6,199.4" style="fill:none;fill-rule:evenodd;stroke:#000000;stroke-width:2.0px;stroke-linecap:butt;stroke-linejoin:miter;stroke-opacity:1"/>
<path class="bond-26 atom-26 atom-27" d="M 118.6,200.6 L 109.7,201.6" style="fill:none;fill-rule:evenodd;stroke:#000000;stroke-width:2.0px;stroke-linecap:butt;stroke-linejoin:miter;stroke-opacity:1"/>
<path class="bond-26 atom-26 atom-27" d="M 109.7,201.6 L 100.7,202.7" style="fill:none;fill-rule:evenodd;stroke:#0000FF;stroke-width:2.0px;stroke-linecap:butt;stroke-linejoin:miter;stroke-opacity:1"/>
<path class="bond-27 atom-27 atom-28" d="M 95.1,199.4 L 90.2,192.8" style="fill:none;fill-rule:evenodd;stroke:#0000FF;stroke-width:2.0px;stroke-linecap:butt;stroke-linejoin:miter;stroke-opacity:1"/>
<path class="bond-27 atom-27 atom-28" d="M 90.2,192.8 L 85.4,186.3" style="fill:none;fill-rule:evenodd;stroke:#000000;stroke-width:2.0px;stroke-linecap:butt;stroke-linejoin:miter;stroke-opacity:1"/>
<path class="bond-28 atom-28 atom-29" d="M 85.4,186.3 L 64.6,188.7" style="fill:none;fill-rule:evenodd;stroke:#000000;stroke-width:2.0px;stroke-linecap:butt;stroke-linejoin:miter;stroke-opacity:1"/>
<path class="bond-29 atom-29 atom-30" d="M 64.6,188.7 L 52.2,171.9" style="fill:none;fill-rule:evenodd;stroke:#000000;stroke-width:2.0px;stroke-linecap:butt;stroke-linejoin:miter;stroke-opacity:1"/>
<path class="bond-30 atom-30 atom-31" d="M 52.2,171.9 L 31.4,174.3" style="fill:none;fill-rule:evenodd;stroke:#000000;stroke-width:2.0px;stroke-linecap:butt;stroke-linejoin:miter;stroke-opacity:1"/>
<path class="bond-31 atom-31 atom-32" d="M 31.4,174.3 L 28.1,182.1" style="fill:none;fill-rule:evenodd;stroke:#000000;stroke-width:2.0px;stroke-linecap:butt;stroke-linejoin:miter;stroke-opacity:1"/>
<path class="bond-31 atom-31 atom-32" d="M 28.1,182.1 L 24.8,189.8" style="fill:none;fill-rule:evenodd;stroke:#FF0000;stroke-width:2.0px;stroke-linecap:butt;stroke-linejoin:miter;stroke-opacity:1"/>
<path class="bond-32 atom-32 atom-33" d="M 26.0,197.3 L 30.8,203.7" style="fill:none;fill-rule:evenodd;stroke:#FF0000;stroke-width:2.0px;stroke-linecap:butt;stroke-linejoin:miter;stroke-opacity:1"/>
<path class="bond-32 atom-32 atom-33" d="M 30.8,203.7 L 35.6,210.2" style="fill:none;fill-rule:evenodd;stroke:#000000;stroke-width:2.0px;stroke-linecap:butt;stroke-linejoin:miter;stroke-opacity:1"/>
<path class="bond-33 atom-33 atom-34" d="M 35.6,210.2 L 56.4,207.8" style="fill:none;fill-rule:evenodd;stroke:#000000;stroke-width:2.0px;stroke-linecap:butt;stroke-linejoin:miter;stroke-opacity:1"/>
<path class="bond-34 atom-26 atom-35" d="M 118.6,200.6 L 131.0,217.4" style="fill:none;fill-rule:evenodd;stroke:#000000;stroke-width:2.0px;stroke-linecap:butt;stroke-linejoin:miter;stroke-opacity:1"/>
<path class="bond-35 atom-35 atom-36" d="M 131.0,217.4 L 151.7,214.9" style="fill:none;fill-rule:evenodd;stroke:#000000;stroke-width:2.0px;stroke-linecap:butt;stroke-linejoin:miter;stroke-opacity:1"/>
<path class="bond-35 atom-35 atom-36" d="M 133.6,212.8 L 148.1,211.2" style="fill:none;fill-rule:evenodd;stroke:#000000;stroke-width:2.0px;stroke-linecap:butt;stroke-linejoin:miter;stroke-opacity:1"/>
<path class="bond-36 atom-35 atom-37" d="M 131.0,217.4 L 127.6,225.1" style="fill:none;fill-rule:evenodd;stroke:#000000;stroke-width:2.0px;stroke-linecap:butt;stroke-linejoin:miter;stroke-opacity:1"/>
<path class="bond-36 atom-35 atom-37" d="M 127.6,225.1 L 124.3,232.9" style="fill:none;fill-rule:evenodd;stroke:#0000FF;stroke-width:2.0px;stroke-linecap:butt;stroke-linejoin:miter;stroke-opacity:1"/>
<path class="bond-37 atom-37 atom-38" d="M 125.4,240.2 L 128.9,244.9" style="fill:none;fill-rule:evenodd;stroke:#0000FF;stroke-width:2.0px;stroke-linecap:butt;stroke-linejoin:miter;stroke-opacity:1"/>
<path class="bond-37 atom-37 atom-38" d="M 128.9,244.9 L 132.4,249.6" style="fill:none;fill-rule:evenodd;stroke:#FF0000;stroke-width:2.0px;stroke-linecap:butt;stroke-linejoin:miter;stroke-opacity:1"/>
<path class="bond-38 atom-37 atom-39" d="M 120.0,238.9 L 112.8,239.8" style="fill:none;fill-rule:evenodd;stroke:#0000FF;stroke-width:2.0px;stroke-linecap:butt;stroke-linejoin:miter;stroke-opacity:1"/>
<path class="bond-38 atom-37 atom-39" d="M 112.8,239.8 L 105.6,240.6" style="fill:none;fill-rule:evenodd;stroke:#FF0000;stroke-width:2.0px;stroke-linecap:butt;stroke-linejoin:miter;stroke-opacity:1"/>
<path class="bond-38 atom-37 atom-39" d="M 119.6,234.8 L 112.4,235.6" style="fill:none;fill-rule:evenodd;stroke:#0000FF;stroke-width:2.0px;stroke-linecap:butt;stroke-linejoin:miter;stroke-opacity:1"/>
<path class="bond-38 atom-37 atom-39" d="M 112.4,235.6 L 105.2,236.5" style="fill:none;fill-rule:evenodd;stroke:#FF0000;stroke-width:2.0px;stroke-linecap:butt;stroke-linejoin:miter;stroke-opacity:1"/>
<path class="bond-39 atom-16 atom-40" d="M 234.7,205.3 L 247.1,222.1" style="fill:none;fill-rule:evenodd;stroke:#000000;stroke-width:2.0px;stroke-linecap:butt;stroke-linejoin:miter;stroke-opacity:1"/>
<path class="bond-40 atom-40 atom-41" d="M 247.1,222.1 L 243.8,229.8" style="fill:none;fill-rule:evenodd;stroke:#000000;stroke-width:2.0px;stroke-linecap:butt;stroke-linejoin:miter;stroke-opacity:1"/>
<path class="bond-40 atom-40 atom-41" d="M 243.8,229.8 L 240.4,237.5" style="fill:none;fill-rule:evenodd;stroke:#FF0000;stroke-width:2.0px;stroke-linecap:butt;stroke-linejoin:miter;stroke-opacity:1"/>
<path class="bond-41 atom-41 atom-42" d="M 241.6,245.0 L 246.5,251.5" style="fill:none;fill-rule:evenodd;stroke:#FF0000;stroke-width:2.0px;stroke-linecap:butt;stroke-linejoin:miter;stroke-opacity:1"/>
<path class="bond-41 atom-41 atom-42" d="M 246.5,251.5 L 251.3,258.0" style="fill:none;fill-rule:evenodd;stroke:#000000;stroke-width:2.0px;stroke-linecap:butt;stroke-linejoin:miter;stroke-opacity:1"/>
<path class="bond-42 atom-42 atom-43" d="M 251.3,258.0 L 272.0,255.6" style="fill:none;fill-rule:evenodd;stroke:#000000;stroke-width:2.0px;stroke-linecap:butt;stroke-linejoin:miter;stroke-opacity:1"/>
<path class="bond-42 atom-42 atom-43" d="M 254.9,261.8 L 269.4,260.1" style="fill:none;fill-rule:evenodd;stroke:#000000;stroke-width:2.0px;stroke-linecap:butt;stroke-linejoin:miter;stroke-opacity:1"/>
<path class="bond-43 atom-43 atom-44" d="M 272.0,255.6 L 276.9,262.1" style="fill:none;fill-rule:evenodd;stroke:#000000;stroke-width:2.0px;stroke-linecap:butt;stroke-linejoin:miter;stroke-opacity:1"/>
<path class="bond-43 atom-43 atom-44" d="M 276.9,262.1 L 281.8,268.7" style="fill:none;fill-rule:evenodd;stroke:#0000FF;stroke-width:2.0px;stroke-linecap:butt;stroke-linejoin:miter;stroke-opacity:1"/>
<path class="bond-44 atom-44 atom-45" d="M 282.9,276.0 L 279.5,283.7" style="fill:none;fill-rule:evenodd;stroke:#0000FF;stroke-width:2.0px;stroke-linecap:butt;stroke-linejoin:miter;stroke-opacity:1"/>
<path class="bond-44 atom-44 atom-45" d="M 279.5,283.7 L 276.2,291.5" style="fill:none;fill-rule:evenodd;stroke:#000000;stroke-width:2.0px;stroke-linecap:butt;stroke-linejoin:miter;stroke-opacity:1"/>
<path class="bond-44 atom-44 atom-45" d="M 278.1,276.6 L 275.7,282.1" style="fill:none;fill-rule:evenodd;stroke:#0000FF;stroke-width:2.0px;stroke-linecap:butt;stroke-linejoin:miter;stroke-opacity:1"/>
<path class="bond-44 atom-44 atom-45" d="M 275.7,282.1 L 273.4,287.5" style="fill:none;fill-rule:evenodd;stroke:#000000;stroke-width:2.0px;stroke-linecap:butt;stroke-linejoin:miter;stroke-opacity:1"/>
<path class="bond-45 atom-45 atom-46" d="M 276.2,291.5 L 279.7,299.1" style="fill:none;fill-rule:evenodd;stroke:#000000;stroke-width:2.0px;stroke-linecap:butt;stroke-linejoin:miter;stroke-opacity:1"/>
<path class="bond-45 atom-45 atom-46" d="M 279.7,299.1 L 283.2,306.8" style="fill:none;fill-rule:evenodd;stroke:#0000FF;stroke-width:2.0px;stroke-linecap:butt;stroke-linejoin:miter;stroke-opacity:1"/>
<path class="bond-46 atom-46 atom-47" d="M 282.0,313.2 L 275.7,318.9" style="fill:none;fill-rule:evenodd;stroke:#0000FF;stroke-width:2.0px;stroke-linecap:butt;stroke-linejoin:miter;stroke-opacity:1"/>
<path class="bond-46 atom-46 atom-47" d="M 275.7,318.9 L 269.5,324.6" style="fill:none;fill-rule:evenodd;stroke:#000000;stroke-width:2.0px;stroke-linecap:butt;stroke-linejoin:miter;stroke-opacity:1"/>
<path class="bond-47 atom-47 atom-48" d="M 269.5,324.6 L 251.3,314.4" style="fill:none;fill-rule:evenodd;stroke:#000000;stroke-width:2.0px;stroke-linecap:butt;stroke-linejoin:miter;stroke-opacity:1"/>
<path class="bond-47 atom-47 atom-48" d="M 268.9,319.4 L 256.1,312.2" style="fill:none;fill-rule:evenodd;stroke:#000000;stroke-width:2.0px;stroke-linecap:butt;stroke-linejoin:miter;stroke-opacity:1"/>
<path class="bond-48 atom-48 atom-49" d="M 251.3,314.4 L 255.5,293.9" style="fill:none;fill-rule:evenodd;stroke:#000000;stroke-width:2.0px;stroke-linecap:butt;stroke-linejoin:miter;stroke-opacity:1"/>
<path class="bond-49 atom-49 atom-50" d="M 255.5,293.9 L 243.0,277.1" style="fill:none;fill-rule:evenodd;stroke:#000000;stroke-width:2.0px;stroke-linecap:butt;stroke-linejoin:miter;stroke-opacity:1"/>
<path class="bond-49 atom-49 atom-50" d="M 256.9,288.9 L 248.2,277.2" style="fill:none;fill-rule:evenodd;stroke:#000000;stroke-width:2.0px;stroke-linecap:butt;stroke-linejoin:miter;stroke-opacity:1"/>
<path class="bond-50 atom-40 atom-51" d="M 247.1,222.1 L 267.9,219.7" style="fill:none;fill-rule:evenodd;stroke:#000000;stroke-width:2.0px;stroke-linecap:butt;stroke-linejoin:miter;stroke-opacity:1"/>
<path class="bond-50 atom-40 atom-51" d="M 249.7,217.6 L 264.3,215.9" style="fill:none;fill-rule:evenodd;stroke:#000000;stroke-width:2.0px;stroke-linecap:butt;stroke-linejoin:miter;stroke-opacity:1"/>
<path class="bond-51 atom-5 atom-52" d="M 371.5,207.6 L 392.2,205.2" style="fill:none;fill-rule:evenodd;stroke:#000000;stroke-width:2.0px;stroke-linecap:butt;stroke-linejoin:miter;stroke-opacity:1"/>
<path class="bond-51 atom-5 atom-52" d="M 375.1,211.4 L 389.6,209.7" style="fill:none;fill-rule:evenodd;stroke:#000000;stroke-width:2.0px;stroke-linecap:butt;stroke-linejoin:miter;stroke-opacity:1"/>
<path class="bond-52 atom-52 atom-53" d="M 392.2,205.2 L 404.7,222.0" style="fill:none;fill-rule:evenodd;stroke:#000000;stroke-width:2.0px;stroke-linecap:butt;stroke-linejoin:miter;stroke-opacity:1"/>
<path class="bond-53 atom-52 atom-54" d="M 392.2,205.2 L 400.5,186.1" style="fill:none;fill-rule:evenodd;stroke:#000000;stroke-width:2.0px;stroke-linecap:butt;stroke-linejoin:miter;stroke-opacity:1"/>
<path class="bond-54 atom-54 atom-55" d="M 400.5,186.1 L 421.3,183.6" style="fill:none;fill-rule:evenodd;stroke:#000000;stroke-width:2.0px;stroke-linecap:butt;stroke-linejoin:miter;stroke-opacity:1"/>
<path class="bond-54 atom-54 atom-55" d="M 403.2,181.5 L 417.7,179.9" style="fill:none;fill-rule:evenodd;stroke:#000000;stroke-width:2.0px;stroke-linecap:butt;stroke-linejoin:miter;stroke-opacity:1"/>
<path class="bond-55 atom-55 atom-56" d="M 421.3,183.6 L 429.5,164.5" style="fill:none;fill-rule:evenodd;stroke:#000000;stroke-width:2.0px;stroke-linecap:butt;stroke-linejoin:miter;stroke-opacity:1"/>
<path class="bond-56 atom-56 atom-57" d="M 429.5,164.5 L 417.1,147.7" style="fill:none;fill-rule:evenodd;stroke:#000000;stroke-width:2.0px;stroke-linecap:butt;stroke-linejoin:miter;stroke-opacity:1"/>
<path class="bond-56 atom-56 atom-57" d="M 424.3,164.5 L 415.6,152.7" style="fill:none;fill-rule:evenodd;stroke:#000000;stroke-width:2.0px;stroke-linecap:butt;stroke-linejoin:miter;stroke-opacity:1"/>
<path class="bond-57 atom-57 atom-58" d="M 417.1,147.7 L 420.4,140.1" style="fill:none;fill-rule:evenodd;stroke:#000000;stroke-width:2.0px;stroke-linecap:butt;stroke-linejoin:miter;stroke-opacity:1"/>
<path class="bond-57 atom-57 atom-58" d="M 420.4,140.1 L 423.7,132.5" style="fill:none;fill-rule:evenodd;stroke:#00CC00;stroke-width:2.0px;stroke-linecap:butt;stroke-linejoin:miter;stroke-opacity:1"/>
<path class="bond-58 atom-57 atom-59" d="M 417.1,147.7 L 396.4,150.1" style="fill:none;fill-rule:evenodd;stroke:#000000;stroke-width:2.0px;stroke-linecap:butt;stroke-linejoin:miter;stroke-opacity:1"/>
<path class="bond-59 atom-59 atom-60" d="M 396.4,150.1 L 388.1,169.3" style="fill:none;fill-rule:evenodd;stroke:#000000;stroke-width:2.0px;stroke-linecap:butt;stroke-linejoin:miter;stroke-opacity:1"/>
<path class="bond-59 atom-59 atom-60" d="M 399.0,154.7 L 393.2,168.1" style="fill:none;fill-rule:evenodd;stroke:#000000;stroke-width:2.0px;stroke-linecap:butt;stroke-linejoin:miter;stroke-opacity:1"/>
<path class="bond-60 atom-53 atom-1" d="M 404.7,222.0 L 396.4,241.1" style="fill:none;fill-rule:evenodd;stroke:#000000;stroke-width:2.0px;stroke-linecap:butt;stroke-linejoin:miter;stroke-opacity:1"/>
<path class="bond-61 atom-60 atom-54" d="M 388.1,169.3 L 400.5,186.1" style="fill:none;fill-rule:evenodd;stroke:#000000;stroke-width:2.0px;stroke-linecap:butt;stroke-linejoin:miter;stroke-opacity:1"/>
<path class="bond-62 atom-12 atom-7" d="M 330.1,212.4 L 333.4,204.7" style="fill:none;fill-rule:evenodd;stroke:#000000;stroke-width:2.0px;stroke-linecap:butt;stroke-linejoin:miter;stroke-opacity:1"/>
<path class="bond-62 atom-12 atom-7" d="M 333.4,204.7 L 336.8,196.9" style="fill:none;fill-rule:evenodd;stroke:#0000FF;stroke-width:2.0px;stroke-linecap:butt;stroke-linejoin:miter;stroke-opacity:1"/>
<path class="bond-63 atom-51 atom-13" d="M 267.9,219.7 L 276.1,200.5" style="fill:none;fill-rule:evenodd;stroke:#000000;stroke-width:2.0px;stroke-linecap:butt;stroke-linejoin:miter;stroke-opacity:1"/>
<path class="bond-64 atom-36 atom-23" d="M 151.7,214.9 L 160.0,195.8" style="fill:none;fill-rule:evenodd;stroke:#000000;stroke-width:2.0px;stroke-linecap:butt;stroke-linejoin:miter;stroke-opacity:1"/>
<path class="bond-65 atom-50 atom-42" d="M 243.0,277.1 L 251.3,258.0" style="fill:none;fill-rule:evenodd;stroke:#000000;stroke-width:2.0px;stroke-linecap:butt;stroke-linejoin:miter;stroke-opacity:1"/>
<path class="bond-66 atom-34 atom-29" d="M 56.4,207.8 L 64.6,188.7" style="fill:none;fill-rule:evenodd;stroke:#000000;stroke-width:2.0px;stroke-linecap:butt;stroke-linejoin:miter;stroke-opacity:1"/>
<path class="bond-67 atom-49 atom-45" d="M 255.5,293.9 L 276.2,291.5" style="fill:none;fill-rule:evenodd;stroke:#000000;stroke-width:2.0px;stroke-linecap:butt;stroke-linejoin:miter;stroke-opacity:1"/>
<path class="atom-7" d="M 337.0 190.3 L 339.0 193.5 Q 339.2 193.8, 339.5 194.3 Q 339.8 194.9, 339.8 194.9 L 339.8 190.3 L 340.6 190.3 L 340.6 196.2 L 339.8 196.2 L 337.7 192.8 Q 337.4 192.4, 337.2 192.0 Q 336.9 191.5, 336.9 191.3 L 336.9 196.2 L 336.1 196.2 L 336.1 190.3 L 337.0 190.3 " fill="#0000FF"/>
<path class="atom-10" d="M 295.6 195.1 L 297.5 198.3 Q 297.7 198.6, 298.0 199.1 Q 298.3 199.7, 298.3 199.7 L 298.3 195.1 L 299.1 195.1 L 299.1 201.0 L 298.3 201.0 L 296.2 197.6 Q 296.0 197.2, 295.7 196.8 Q 295.5 196.3, 295.4 196.2 L 295.4 201.0 L 294.6 201.0 L 294.6 195.1 L 295.6 195.1 " fill="#0000FF"/>
<path class="atom-18" d="M 202.9 226.9 Q 202.9 225.5, 203.6 224.7 Q 204.3 223.9, 205.7 223.9 Q 207.0 223.9, 207.7 224.7 Q 208.4 225.5, 208.4 226.9 Q 208.4 228.3, 207.7 229.2 Q 206.9 230.0, 205.7 230.0 Q 204.4 230.0, 203.6 229.2 Q 202.9 228.3, 202.9 226.9 M 205.7 229.3 Q 206.6 229.3, 207.0 228.7 Q 207.5 228.1, 207.5 226.9 Q 207.5 225.7, 207.0 225.2 Q 206.6 224.6, 205.7 224.6 Q 204.8 224.6, 204.3 225.1 Q 203.8 225.7, 203.8 226.9 Q 203.8 228.1, 204.3 228.7 Q 204.8 229.3, 205.7 229.3 " fill="#FF0000"/>
<path class="atom-19" d="M 200.2 188.0 L 202.1 191.1 Q 202.3 191.5, 202.6 192.0 Q 202.9 192.6, 202.9 192.6 L 202.9 188.0 L 203.7 188.0 L 203.7 193.9 L 202.9 193.9 L 200.8 190.5 Q 200.6 190.1, 200.3 189.6 Q 200.1 189.2, 200.0 189.0 L 200.0 193.9 L 199.2 193.9 L 199.2 188.0 L 200.2 188.0 " fill="#0000FF"/>
<path class="atom-19" d="M 204.4 188.0 L 205.2 188.0 L 205.2 190.5 L 208.2 190.5 L 208.2 188.0 L 209.0 188.0 L 209.0 193.9 L 208.2 193.9 L 208.2 191.2 L 205.2 191.2 L 205.2 193.9 L 204.4 193.9 L 204.4 188.0 " fill="#0000FF"/>
<path class="atom-20" d="M 179.1 195.4 Q 179.1 195.4, 179.4 195.6 Q 179.7 195.7, 180.0 195.7 Q 180.3 195.8, 180.6 195.8 Q 181.2 195.8, 181.5 195.5 Q 181.8 195.3, 181.8 194.8 Q 181.8 194.5, 181.7 194.3 Q 181.5 194.1, 181.2 194.0 Q 181.0 193.8, 180.6 193.7 Q 180.0 193.6, 179.7 193.4 Q 179.4 193.3, 179.2 192.9 Q 179.0 192.6, 179.0 192.1 Q 179.0 191.4, 179.5 190.9 Q 180.0 190.4, 181.0 190.4 Q 181.7 190.4, 182.5 190.8 L 182.3 191.4 Q 181.6 191.1, 181.0 191.1 Q 180.4 191.1, 180.1 191.4 Q 179.8 191.6, 179.8 192.0 Q 179.8 192.3, 180.0 192.5 Q 180.1 192.7, 180.4 192.8 Q 180.6 192.9, 181.0 193.0 Q 181.6 193.2, 181.9 193.4 Q 182.2 193.5, 182.4 193.9 Q 182.6 194.2, 182.6 194.8 Q 182.6 195.6, 182.1 196.1 Q 181.6 196.5, 180.6 196.5 Q 180.1 196.5, 179.7 196.4 Q 179.3 196.3, 178.9 196.1 L 179.1 195.4 " fill="#CCCC00"/>
<path class="atom-21" d="M 180.4 214.1 Q 180.4 212.7, 181.1 211.9 Q 181.8 211.1, 183.2 211.1 Q 184.5 211.1, 185.2 211.9 Q 185.9 212.7, 185.9 214.1 Q 185.9 215.6, 185.2 216.4 Q 184.5 217.2, 183.2 217.2 Q 181.9 217.2, 181.1 216.4 Q 180.4 215.6, 180.4 214.1 M 183.2 216.5 Q 184.1 216.5, 184.5 215.9 Q 185.0 215.3, 185.0 214.1 Q 185.0 213.0, 184.5 212.4 Q 184.1 211.8, 183.2 211.8 Q 182.3 211.8, 181.8 212.4 Q 181.3 213.0, 181.3 214.1 Q 181.3 215.3, 181.8 215.9 Q 182.3 216.5, 183.2 216.5 " fill="#FF0000"/>
<path class="atom-22" d="M 175.6 172.7 Q 175.6 171.2, 176.3 170.5 Q 177.0 169.7, 178.3 169.7 Q 179.7 169.7, 180.4 170.5 Q 181.1 171.2, 181.1 172.7 Q 181.1 174.1, 180.3 174.9 Q 179.6 175.7, 178.3 175.7 Q 177.0 175.7, 176.3 174.9 Q 175.6 174.1, 175.6 172.7 M 178.3 175.1 Q 179.2 175.1, 179.7 174.5 Q 180.2 173.9, 180.2 172.7 Q 180.2 171.5, 179.7 170.9 Q 179.2 170.3, 178.3 170.3 Q 177.4 170.3, 176.9 170.9 Q 176.5 171.5, 176.5 172.7 Q 176.5 173.9, 176.9 174.5 Q 177.4 175.1, 178.3 175.1 " fill="#FF0000"/>
<path class="atom-27" d="M 90.2 200.1 L 91.0 200.1 L 91.0 202.6 L 94.1 202.6 L 94.1 200.1 L 94.9 200.1 L 94.9 206.0 L 94.1 206.0 L 94.1 203.2 L 91.0 203.2 L 91.0 206.0 L 90.2 206.0 L 90.2 200.1 " fill="#0000FF"/>
<path class="atom-27" d="M 96.5 200.1 L 98.4 203.2 Q 98.6 203.5, 98.9 204.1 Q 99.3 204.6, 99.3 204.6 L 99.3 200.1 L 100.1 200.1 L 100.1 206.0 L 99.3 206.0 L 97.2 202.5 Q 96.9 202.1, 96.7 201.7 Q 96.4 201.2, 96.3 201.1 L 96.3 206.0 L 95.6 206.0 L 95.6 200.1 L 96.5 200.1 " fill="#0000FF"/>
<path class="atom-32" d="M 20.5 193.5 Q 20.5 192.1, 21.2 191.3 Q 21.9 190.5, 23.2 190.5 Q 24.5 190.5, 25.2 191.3 Q 25.9 192.1, 25.9 193.5 Q 25.9 194.9, 25.2 195.8 Q 24.5 196.6, 23.2 196.6 Q 21.9 196.6, 21.2 195.8 Q 20.5 194.9, 20.5 193.5 M 23.2 195.9 Q 24.1 195.9, 24.6 195.3 Q 25.0 194.7, 25.0 193.5 Q 25.0 192.3, 24.6 191.8 Q 24.1 191.2, 23.2 191.2 Q 22.3 191.2, 21.8 191.7 Q 21.3 192.3, 21.3 193.5 Q 21.3 194.7, 21.8 195.3 Q 22.3 195.9, 23.2 195.9 " fill="#FF0000"/>
<path class="atom-37" d="M 121.4 233.6 L 123.4 236.7 Q 123.5 237.0, 123.9 237.6 Q 124.2 238.1, 124.2 238.2 L 124.2 233.6 L 125.0 233.6 L 125.0 239.5 L 124.2 239.5 L 122.1 236.0 Q 121.8 235.6, 121.6 235.2 Q 121.3 234.7, 121.2 234.6 L 121.2 239.5 L 120.5 239.5 L 120.5 233.6 L 121.4 233.6 " fill="#0000FF"/>
<path class="atom-37" d="M 125.7 234.6 L 126.7 234.6 L 126.7 233.5 L 127.2 233.5 L 127.2 234.6 L 128.2 234.6 L 128.2 235.0 L 127.2 235.0 L 127.2 236.1 L 126.7 236.1 L 126.7 235.0 L 125.7 235.0 L 125.7 234.6 " fill="#0000FF"/>
<path class="atom-38" d="M 132.5 253.3 Q 132.5 251.9, 133.2 251.1 Q 133.9 250.3, 135.2 250.3 Q 136.5 250.3, 137.2 251.1 Q 137.9 251.9, 137.9 253.3 Q 137.9 254.7, 137.2 255.5 Q 136.5 256.3, 135.2 256.3 Q 133.9 256.3, 133.2 255.5 Q 132.5 254.7, 132.5 253.3 M 135.2 255.7 Q 136.1 255.7, 136.6 255.1 Q 137.1 254.5, 137.1 253.3 Q 137.1 252.1, 136.6 251.5 Q 136.1 250.9, 135.2 250.9 Q 134.3 250.9, 133.8 251.5 Q 133.3 252.1, 133.3 253.3 Q 133.3 254.5, 133.8 255.1 Q 134.3 255.7, 135.2 255.7 " fill="#FF0000"/>
<path class="atom-38" d="M 138.3 251.2 L 140.3 251.2 L 140.3 251.7 L 138.3 251.7 L 138.3 251.2 " fill="#FF0000"/>
<path class="atom-39" d="M 99.3 238.9 Q 99.3 237.5, 100.0 236.7 Q 100.7 235.9, 102.0 235.9 Q 103.3 235.9, 104.0 236.7 Q 104.7 237.5, 104.7 238.9 Q 104.7 240.4, 104.0 241.2 Q 103.3 242.0, 102.0 242.0 Q 100.7 242.0, 100.0 241.2 Q 99.3 240.4, 99.3 238.9 M 102.0 241.3 Q 102.9 241.3, 103.4 240.7 Q 103.9 240.1, 103.9 238.9 Q 103.9 237.8, 103.4 237.2 Q 102.9 236.6, 102.0 236.6 Q 101.1 236.6, 100.6 237.2 Q 100.1 237.8, 100.1 238.9 Q 100.1 240.1, 100.6 240.7 Q 101.1 241.3, 102.0 241.3 " fill="#FF0000"/>
<path class="atom-41" d="M 236.1 241.2 Q 236.1 239.8, 236.8 239.0 Q 237.5 238.2, 238.8 238.2 Q 240.1 238.2, 240.8 239.0 Q 241.6 239.8, 241.6 241.2 Q 241.6 242.7, 240.8 243.5 Q 240.1 244.3, 238.8 244.3 Q 237.5 244.3, 236.8 243.5 Q 236.1 242.7, 236.1 241.2 M 238.8 243.6 Q 239.7 243.6, 240.2 243.0 Q 240.7 242.4, 240.7 241.2 Q 240.7 240.1, 240.2 239.5 Q 239.7 238.9, 238.8 238.9 Q 237.9 238.9, 237.4 239.5 Q 237.0 240.1, 237.0 241.2 Q 237.0 242.4, 237.4 243.0 Q 237.9 243.6, 238.8 243.6 " fill="#FF0000"/>
<path class="atom-44" d="M 283.2 269.4 L 285.1 272.5 Q 285.3 272.8, 285.6 273.4 Q 285.9 273.9, 285.9 274.0 L 285.9 269.4 L 286.7 269.4 L 286.7 275.3 L 285.9 275.3 L 283.8 271.9 Q 283.6 271.5, 283.3 271.0 Q 283.1 270.5, 283.0 270.4 L 283.0 275.3 L 282.2 275.3 L 282.2 269.4 L 283.2 269.4 " fill="#0000FF"/>
<path class="atom-46" d="M 283.6 307.5 L 285.5 310.6 Q 285.7 310.9, 286.0 311.5 Q 286.3 312.1, 286.3 312.1 L 286.3 307.5 L 287.1 307.5 L 287.1 313.4 L 286.3 313.4 L 284.2 310.0 Q 284.0 309.6, 283.7 309.1 Q 283.5 308.7, 283.4 308.5 L 283.4 313.4 L 282.6 313.4 L 282.6 307.5 L 283.6 307.5 " fill="#0000FF"/>
<path class="atom-46" d="M 287.8 307.5 L 288.6 307.5 L 288.6 310.0 L 291.6 310.0 L 291.6 307.5 L 292.4 307.5 L 292.4 313.4 L 291.6 313.4 L 291.6 310.7 L 288.6 310.7 L 288.6 313.4 L 287.8 313.4 L 287.8 307.5 " fill="#0000FF"/>
<path class="atom-58" d="M 423.1 128.8 Q 423.1 127.3, 423.8 126.5 Q 424.5 125.8, 425.8 125.8 Q 427.0 125.8, 427.7 126.6 L 427.1 127.1 Q 426.6 126.5, 425.8 126.5 Q 424.9 126.5, 424.4 127.1 Q 423.9 127.6, 423.9 128.8 Q 423.9 130.0, 424.4 130.6 Q 424.9 131.2, 425.9 131.2 Q 426.5 131.2, 427.3 130.8 L 427.5 131.4 Q 427.2 131.6, 426.7 131.7 Q 426.3 131.8, 425.8 131.8 Q 424.5 131.8, 423.8 131.0 Q 423.1 130.3, 423.1 128.8 " fill="#00CC00"/>
<path class="atom-58" d="M 428.0 125.4 L 428.8 125.4 L 428.8 131.7 L 428.0 131.7 L 428.0 125.4 " fill="#00CC00"/>
<text x="160" y="440" font-size="16" font-family="Verdana" font-weight="normal" letter-spacing="0" text-anchor="start" fill="black">49846579 PubChem ID</text></svg>
