<?xml version='1.0' encoding='ASCII' standalone='yes'?>
<svg xmlns="http://www.w3.org/2000/svg" xmlns:rdkit="http://www.rdkit.org/xml" xmlns:xlink="http://www.w3.org/1999/xlink" version="1.1" baseProfile="full" xml:space="preserve" width="450px" height="450px" viewBox="0 0 450 450">
<!-- END OF HEADER -->
<rect style="opacity:1.0;fill:#FFFFFF;stroke:none" width="450.0" height="450.0" x="0.0" y="0.0"> </rect>
<path class="bond-0 atom-0 atom-1" d="M 47.4,330.3 L 48.9,298.3" style="fill:none;fill-rule:evenodd;stroke:#000000;stroke-width:2.0px;stroke-linecap:butt;stroke-linejoin:miter;stroke-opacity:1"/>
<path class="bond-1 atom-1 atom-2" d="M 48.9,298.3 L 75.6,280.7" style="fill:none;fill-rule:evenodd;stroke:#000000;stroke-width:2.0px;stroke-linecap:butt;stroke-linejoin:miter;stroke-opacity:1"/>
<path class="bond-2 atom-2 atom-3" d="M 75.6,280.7 L 67.1,249.9" style="fill:none;fill-rule:evenodd;stroke:#000000;stroke-width:2.0px;stroke-linecap:butt;stroke-linejoin:miter;stroke-opacity:1"/>
<path class="bond-2 atom-2 atom-3" d="M 68.2,277.8 L 62.2,256.2" style="fill:none;fill-rule:evenodd;stroke:#000000;stroke-width:2.0px;stroke-linecap:butt;stroke-linejoin:miter;stroke-opacity:1"/>
<path class="bond-3 atom-3 atom-4" d="M 67.1,249.9 L 87.1,224.9" style="fill:none;fill-rule:evenodd;stroke:#000000;stroke-width:2.0px;stroke-linecap:butt;stroke-linejoin:miter;stroke-opacity:1"/>
<path class="bond-4 atom-4 atom-5" d="M 87.1,224.9 L 118.8,229.7" style="fill:none;fill-rule:evenodd;stroke:#000000;stroke-width:2.0px;stroke-linecap:butt;stroke-linejoin:miter;stroke-opacity:1"/>
<path class="bond-5 atom-5 atom-6" d="M 121.8,228.5 L 126.5,240.6" style="fill:none;fill-rule:evenodd;stroke:#000000;stroke-width:2.0px;stroke-linecap:butt;stroke-linejoin:miter;stroke-opacity:1"/>
<path class="bond-5 atom-5 atom-6" d="M 126.5,240.6 L 131.2,252.7" style="fill:none;fill-rule:evenodd;stroke:#FF0000;stroke-width:2.0px;stroke-linecap:butt;stroke-linejoin:miter;stroke-opacity:1"/>
<path class="bond-5 atom-5 atom-6" d="M 115.8,230.9 L 120.5,242.9" style="fill:none;fill-rule:evenodd;stroke:#000000;stroke-width:2.0px;stroke-linecap:butt;stroke-linejoin:miter;stroke-opacity:1"/>
<path class="bond-5 atom-5 atom-6" d="M 120.5,242.9 L 125.2,255.0" style="fill:none;fill-rule:evenodd;stroke:#FF0000;stroke-width:2.0px;stroke-linecap:butt;stroke-linejoin:miter;stroke-opacity:1"/>
<path class="bond-6 atom-5 atom-7" d="M 118.8,229.7 L 126.5,220.0" style="fill:none;fill-rule:evenodd;stroke:#000000;stroke-width:2.0px;stroke-linecap:butt;stroke-linejoin:miter;stroke-opacity:1"/>
<path class="bond-6 atom-5 atom-7" d="M 126.5,220.0 L 134.3,210.3" style="fill:none;fill-rule:evenodd;stroke:#0000FF;stroke-width:2.0px;stroke-linecap:butt;stroke-linejoin:miter;stroke-opacity:1"/>
<path class="bond-7 atom-7 atom-8" d="M 137.2,199.1 L 133.8,186.5" style="fill:none;fill-rule:evenodd;stroke:#0000FF;stroke-width:2.0px;stroke-linecap:butt;stroke-linejoin:miter;stroke-opacity:1"/>
<path class="bond-7 atom-7 atom-8" d="M 133.8,186.5 L 130.3,173.8" style="fill:none;fill-rule:evenodd;stroke:#000000;stroke-width:2.0px;stroke-linecap:butt;stroke-linejoin:miter;stroke-opacity:1"/>
<path class="bond-8 atom-8 atom-9" d="M 130.3,173.8 L 157.0,156.3" style="fill:none;fill-rule:evenodd;stroke:#000000;stroke-width:2.0px;stroke-linecap:butt;stroke-linejoin:miter;stroke-opacity:1"/>
<path class="bond-9 atom-9 atom-10" d="M 157.9,151.3 L 156.6,151.2" style="fill:none;fill-rule:evenodd;stroke:#000000;stroke-width:1.0px;stroke-linecap:butt;stroke-linejoin:miter;stroke-opacity:1"/>
<path class="bond-9 atom-9 atom-10" d="M 158.8,146.3 L 156.2,146.1" style="fill:none;fill-rule:evenodd;stroke:#000000;stroke-width:1.0px;stroke-linecap:butt;stroke-linejoin:miter;stroke-opacity:1"/>
<path class="bond-9 atom-9 atom-10" d="M 159.6,141.3 L 155.8,141.1" style="fill:none;fill-rule:evenodd;stroke:#FF0000;stroke-width:1.0px;stroke-linecap:butt;stroke-linejoin:miter;stroke-opacity:1"/>
<path class="bond-9 atom-9 atom-10" d="M 160.5,136.3 L 155.4,136.0" style="fill:none;fill-rule:evenodd;stroke:#FF0000;stroke-width:1.0px;stroke-linecap:butt;stroke-linejoin:miter;stroke-opacity:1"/>
<path class="bond-9 atom-9 atom-10" d="M 161.4,131.3 L 155.0,131.0" style="fill:none;fill-rule:evenodd;stroke:#FF0000;stroke-width:1.0px;stroke-linecap:butt;stroke-linejoin:miter;stroke-opacity:1"/>
<path class="bond-10 atom-9 atom-11" d="M 157.0,156.3 L 182.0,176.2" style="fill:none;fill-rule:evenodd;stroke:#000000;stroke-width:2.0px;stroke-linecap:butt;stroke-linejoin:miter;stroke-opacity:1"/>
<path class="bond-11 atom-11 atom-12" d="M 182.0,176.2 L 170.7,206.2" style="fill:none;fill-rule:evenodd;stroke:#000000;stroke-width:2.0px;stroke-linecap:butt;stroke-linejoin:miter;stroke-opacity:1"/>
<path class="bond-12 atom-12 atom-13" d="M 170.7,206.2 L 191.0,231.2 L 185.6,234.7 Z" style="fill:#000000;fill-rule:evenodd;fill-opacity:1;stroke:#000000;stroke-width:1.0px;stroke-linecap:butt;stroke-linejoin:miter;stroke-opacity:1;"/>
<path class="bond-13 atom-13 atom-14" d="M 191.2,234.4 L 185.4,245.8" style="fill:none;fill-rule:evenodd;stroke:#000000;stroke-width:2.0px;stroke-linecap:butt;stroke-linejoin:miter;stroke-opacity:1"/>
<path class="bond-13 atom-13 atom-14" d="M 185.4,245.8 L 179.7,257.3" style="fill:none;fill-rule:evenodd;stroke:#FF0000;stroke-width:2.0px;stroke-linecap:butt;stroke-linejoin:miter;stroke-opacity:1"/>
<path class="bond-13 atom-13 atom-14" d="M 185.5,231.5 L 179.7,243.0" style="fill:none;fill-rule:evenodd;stroke:#000000;stroke-width:2.0px;stroke-linecap:butt;stroke-linejoin:miter;stroke-opacity:1"/>
<path class="bond-13 atom-13 atom-14" d="M 179.7,243.0 L 173.9,254.4" style="fill:none;fill-rule:evenodd;stroke:#FF0000;stroke-width:2.0px;stroke-linecap:butt;stroke-linejoin:miter;stroke-opacity:1"/>
<path class="bond-14 atom-13 atom-15" d="M 188.3,232.9 L 202.0,232.1" style="fill:none;fill-rule:evenodd;stroke:#000000;stroke-width:2.0px;stroke-linecap:butt;stroke-linejoin:miter;stroke-opacity:1"/>
<path class="bond-14 atom-13 atom-15" d="M 202.0,232.1 L 215.8,231.3" style="fill:none;fill-rule:evenodd;stroke:#0000FF;stroke-width:2.0px;stroke-linecap:butt;stroke-linejoin:miter;stroke-opacity:1"/>
<path class="bond-15 atom-15 atom-16" d="M 223.9,236.6 L 230.9,247.2" style="fill:none;fill-rule:evenodd;stroke:#0000FF;stroke-width:2.0px;stroke-linecap:butt;stroke-linejoin:miter;stroke-opacity:1"/>
<path class="bond-15 atom-15 atom-16" d="M 230.9,247.2 L 237.9,257.8" style="fill:none;fill-rule:evenodd;stroke:#000000;stroke-width:2.0px;stroke-linecap:butt;stroke-linejoin:miter;stroke-opacity:1"/>
<path class="bond-16 atom-16 atom-17" d="M 237.9,257.8 L 269.8,255.9" style="fill:none;fill-rule:evenodd;stroke:#000000;stroke-width:2.0px;stroke-linecap:butt;stroke-linejoin:miter;stroke-opacity:1"/>
<path class="bond-17 atom-17 atom-18" d="M 269.8,255.9 L 287.4,282.7" style="fill:none;fill-rule:evenodd;stroke:#000000;stroke-width:2.0px;stroke-linecap:butt;stroke-linejoin:miter;stroke-opacity:1"/>
<path class="bond-17 atom-17 atom-18" d="M 277.8,256.4 L 290.1,275.1" style="fill:none;fill-rule:evenodd;stroke:#000000;stroke-width:2.0px;stroke-linecap:butt;stroke-linejoin:miter;stroke-opacity:1"/>
<path class="bond-18 atom-18 atom-19" d="M 287.4,282.7 L 319.3,280.8" style="fill:none;fill-rule:evenodd;stroke:#000000;stroke-width:2.0px;stroke-linecap:butt;stroke-linejoin:miter;stroke-opacity:1"/>
<path class="bond-19 atom-19 atom-20" d="M 319.3,280.8 L 333.7,252.2" style="fill:none;fill-rule:evenodd;stroke:#000000;stroke-width:2.0px;stroke-linecap:butt;stroke-linejoin:miter;stroke-opacity:1"/>
<path class="bond-19 atom-19 atom-20" d="M 315.8,273.6 L 325.8,253.6" style="fill:none;fill-rule:evenodd;stroke:#000000;stroke-width:2.0px;stroke-linecap:butt;stroke-linejoin:miter;stroke-opacity:1"/>
<path class="bond-20 atom-20 atom-21" d="M 333.7,252.2 L 316.1,225.5" style="fill:none;fill-rule:evenodd;stroke:#000000;stroke-width:2.0px;stroke-linecap:butt;stroke-linejoin:miter;stroke-opacity:1"/>
<path class="bond-21 atom-21 atom-22" d="M 316.1,225.5 L 284.2,227.3" style="fill:none;fill-rule:evenodd;stroke:#000000;stroke-width:2.0px;stroke-linecap:butt;stroke-linejoin:miter;stroke-opacity:1"/>
<path class="bond-21 atom-21 atom-22" d="M 311.7,232.1 L 289.3,233.4" style="fill:none;fill-rule:evenodd;stroke:#000000;stroke-width:2.0px;stroke-linecap:butt;stroke-linejoin:miter;stroke-opacity:1"/>
<path class="bond-22 atom-20 atom-23" d="M 333.7,252.2 L 365.7,250.3" style="fill:none;fill-rule:evenodd;stroke:#000000;stroke-width:2.0px;stroke-linecap:butt;stroke-linejoin:miter;stroke-opacity:1"/>
<path class="bond-23 atom-23 atom-24" d="M 365.7,250.3 L 383.2,277.1" style="fill:none;fill-rule:evenodd;stroke:#000000;stroke-width:2.0px;stroke-linecap:butt;stroke-linejoin:miter;stroke-opacity:1"/>
<path class="bond-23 atom-23 atom-24" d="M 373.6,250.8 L 385.9,269.5" style="fill:none;fill-rule:evenodd;stroke:#000000;stroke-width:2.0px;stroke-linecap:butt;stroke-linejoin:miter;stroke-opacity:1"/>
<path class="bond-24 atom-24 atom-25" d="M 383.2,277.1 L 415.2,275.2" style="fill:none;fill-rule:evenodd;stroke:#000000;stroke-width:2.0px;stroke-linecap:butt;stroke-linejoin:miter;stroke-opacity:1"/>
<path class="bond-25 atom-25 atom-26" d="M 415.2,275.2 L 429.5,246.6" style="fill:none;fill-rule:evenodd;stroke:#000000;stroke-width:2.0px;stroke-linecap:butt;stroke-linejoin:miter;stroke-opacity:1"/>
<path class="bond-25 atom-25 atom-26" d="M 411.6,268.0 L 421.7,248.0" style="fill:none;fill-rule:evenodd;stroke:#000000;stroke-width:2.0px;stroke-linecap:butt;stroke-linejoin:miter;stroke-opacity:1"/>
<path class="bond-26 atom-26 atom-27" d="M 429.5,246.6 L 422.6,236.0" style="fill:none;fill-rule:evenodd;stroke:#000000;stroke-width:2.0px;stroke-linecap:butt;stroke-linejoin:miter;stroke-opacity:1"/>
<path class="bond-26 atom-26 atom-27" d="M 422.6,236.0 L 415.6,225.4" style="fill:none;fill-rule:evenodd;stroke:#0000FF;stroke-width:2.0px;stroke-linecap:butt;stroke-linejoin:miter;stroke-opacity:1"/>
<path class="bond-27 atom-27 atom-28" d="M 407.5,220.1 L 393.7,220.9" style="fill:none;fill-rule:evenodd;stroke:#0000FF;stroke-width:2.0px;stroke-linecap:butt;stroke-linejoin:miter;stroke-opacity:1"/>
<path class="bond-27 atom-27 atom-28" d="M 393.7,220.9 L 380.0,221.7" style="fill:none;fill-rule:evenodd;stroke:#000000;stroke-width:2.0px;stroke-linecap:butt;stroke-linejoin:miter;stroke-opacity:1"/>
<path class="bond-27 atom-27 atom-28" d="M 403.7,226.7 L 394.1,227.3" style="fill:none;fill-rule:evenodd;stroke:#0000FF;stroke-width:2.0px;stroke-linecap:butt;stroke-linejoin:miter;stroke-opacity:1"/>
<path class="bond-27 atom-27 atom-28" d="M 394.1,227.3 L 384.5,227.9" style="fill:none;fill-rule:evenodd;stroke:#000000;stroke-width:2.0px;stroke-linecap:butt;stroke-linejoin:miter;stroke-opacity:1"/>
<path class="bond-28 atom-3 atom-29" d="M 67.1,249.9 L 53.8,249.3" style="fill:none;fill-rule:evenodd;stroke:#000000;stroke-width:2.0px;stroke-linecap:butt;stroke-linejoin:miter;stroke-opacity:1"/>
<path class="bond-28 atom-3 atom-29" d="M 53.8,249.3 L 40.4,248.6" style="fill:none;fill-rule:evenodd;stroke:#FF0000;stroke-width:2.0px;stroke-linecap:butt;stroke-linejoin:miter;stroke-opacity:1"/>
<path class="bond-29 atom-29 atom-30" d="M 33.0,254.2 L 29.5,263.5" style="fill:none;fill-rule:evenodd;stroke:#FF0000;stroke-width:2.0px;stroke-linecap:butt;stroke-linejoin:miter;stroke-opacity:1"/>
<path class="bond-29 atom-29 atom-30" d="M 29.5,263.5 L 26.0,272.8" style="fill:none;fill-rule:evenodd;stroke:#0000FF;stroke-width:2.0px;stroke-linecap:butt;stroke-linejoin:miter;stroke-opacity:1"/>
<path class="bond-30 atom-30 atom-1" d="M 28.4,281.9 L 38.6,290.1" style="fill:none;fill-rule:evenodd;stroke:#0000FF;stroke-width:2.0px;stroke-linecap:butt;stroke-linejoin:miter;stroke-opacity:1"/>
<path class="bond-30 atom-30 atom-1" d="M 38.6,290.1 L 48.9,298.3" style="fill:none;fill-rule:evenodd;stroke:#000000;stroke-width:2.0px;stroke-linecap:butt;stroke-linejoin:miter;stroke-opacity:1"/>
<path class="bond-30 atom-30 atom-1" d="M 35.5,279.4 L 42.6,285.1" style="fill:none;fill-rule:evenodd;stroke:#0000FF;stroke-width:2.0px;stroke-linecap:butt;stroke-linejoin:miter;stroke-opacity:1"/>
<path class="bond-30 atom-30 atom-1" d="M 42.6,285.1 L 49.8,290.9" style="fill:none;fill-rule:evenodd;stroke:#000000;stroke-width:2.0px;stroke-linecap:butt;stroke-linejoin:miter;stroke-opacity:1"/>
<path class="bond-31 atom-12 atom-7" d="M 170.7,206.2 L 157.0,205.6" style="fill:none;fill-rule:evenodd;stroke:#000000;stroke-width:2.0px;stroke-linecap:butt;stroke-linejoin:miter;stroke-opacity:1"/>
<path class="bond-31 atom-12 atom-7" d="M 157.0,205.6 L 143.3,204.9" style="fill:none;fill-rule:evenodd;stroke:#0000FF;stroke-width:2.0px;stroke-linecap:butt;stroke-linejoin:miter;stroke-opacity:1"/>
<path class="bond-32 atom-22 atom-17" d="M 284.2,227.3 L 269.8,255.9" style="fill:none;fill-rule:evenodd;stroke:#000000;stroke-width:2.0px;stroke-linecap:butt;stroke-linejoin:miter;stroke-opacity:1"/>
<path class="bond-33 atom-28 atom-23" d="M 380.0,221.7 L 365.7,250.3" style="fill:none;fill-rule:evenodd;stroke:#000000;stroke-width:2.0px;stroke-linecap:butt;stroke-linejoin:miter;stroke-opacity:1"/>
<path class="atom-6" d="M 126.3 259.5 Q 126.3 257.4, 127.3 256.1 Q 128.4 254.9, 130.4 254.9 Q 132.4 254.9, 133.5 256.1 Q 134.6 257.4, 134.6 259.5 Q 134.6 261.7, 133.5 263.0 Q 132.4 264.2, 130.4 264.2 Q 128.4 264.2, 127.3 263.0 Q 126.3 261.7, 126.3 259.5 M 130.4 263.2 Q 131.8 263.2, 132.5 262.3 Q 133.3 261.3, 133.3 259.5 Q 133.3 257.8, 132.5 256.9 Q 131.8 255.9, 130.4 255.9 Q 129.0 255.9, 128.3 256.8 Q 127.5 257.7, 127.5 259.5 Q 127.5 261.4, 128.3 262.3 Q 129.0 263.2, 130.4 263.2 " fill="#FF0000"/>
<path class="atom-7" d="M 136.8 200.2 L 139.7 205.0 Q 140.0 205.5, 140.5 206.3 Q 141.0 207.2, 141.0 207.2 L 141.0 200.2 L 142.2 200.2 L 142.2 209.2 L 141.0 209.2 L 137.8 204.0 Q 137.4 203.4, 137.0 202.7 Q 136.6 202.0, 136.5 201.8 L 136.5 209.2 L 135.3 209.2 L 135.3 200.2 L 136.8 200.2 " fill="#0000FF"/>
<path class="atom-10" d="M 154.3 124.3 Q 154.3 122.1, 155.4 120.9 Q 156.5 119.7, 158.5 119.7 Q 160.5 119.7, 161.6 120.9 Q 162.7 122.1, 162.7 124.3 Q 162.7 126.5, 161.6 127.8 Q 160.5 129.0, 158.5 129.0 Q 156.5 129.0, 155.4 127.8 Q 154.3 126.5, 154.3 124.3 M 158.5 128.0 Q 159.9 128.0, 160.6 127.1 Q 161.4 126.1, 161.4 124.3 Q 161.4 122.5, 160.6 121.6 Q 159.9 120.7, 158.5 120.7 Q 157.1 120.7, 156.4 121.6 Q 155.6 122.5, 155.6 124.3 Q 155.6 126.1, 156.4 127.1 Q 157.1 128.0, 158.5 128.0 " fill="#FF0000"/>
<path class="atom-10" d="M 163.3 119.8 L 164.5 119.8 L 164.5 123.7 L 169.2 123.7 L 169.2 119.8 L 170.4 119.8 L 170.4 128.9 L 169.2 128.9 L 169.2 124.7 L 164.5 124.7 L 164.5 128.9 L 163.3 128.9 L 163.3 119.8 " fill="#FF0000"/>
<path class="atom-14" d="M 169.8 261.5 Q 169.8 259.4, 170.9 258.2 Q 172.0 256.9, 174.0 256.9 Q 176.0 256.9, 177.1 258.2 Q 178.1 259.4, 178.1 261.5 Q 178.1 263.8, 177.0 265.0 Q 175.9 266.2, 174.0 266.2 Q 172.0 266.2, 170.9 265.0 Q 169.8 263.8, 169.8 261.5 M 174.0 265.2 Q 175.3 265.2, 176.1 264.3 Q 176.8 263.4, 176.8 261.5 Q 176.8 259.8, 176.1 258.9 Q 175.3 258.0, 174.0 258.0 Q 172.6 258.0, 171.8 258.9 Q 171.1 259.8, 171.1 261.5 Q 171.1 263.4, 171.8 264.3 Q 172.6 265.2, 174.0 265.2 " fill="#FF0000"/>
<path class="atom-15" d="M 218.3 226.5 L 221.2 231.3 Q 221.5 231.8, 222.0 232.7 Q 222.5 233.5, 222.5 233.6 L 222.5 226.5 L 223.7 226.5 L 223.7 235.6 L 222.5 235.6 L 219.3 230.3 Q 218.9 229.7, 218.5 229.0 Q 218.1 228.3, 218.0 228.1 L 218.0 235.6 L 216.8 235.6 L 216.8 226.5 L 218.3 226.5 " fill="#0000FF"/>
<path class="atom-15" d="M 224.8 226.5 L 226.0 226.5 L 226.0 230.4 L 230.6 230.4 L 230.6 226.5 L 231.9 226.5 L 231.9 235.6 L 230.6 235.6 L 230.6 231.4 L 226.0 231.4 L 226.0 235.6 L 224.8 235.6 L 224.8 226.5 " fill="#0000FF"/>
<path class="atom-27" d="M 410.0 215.3 L 412.9 220.1 Q 413.2 220.6, 413.7 221.4 Q 414.2 222.3, 414.2 222.4 L 414.2 215.3 L 415.4 215.3 L 415.4 224.4 L 414.1 224.4 L 411.0 219.1 Q 410.6 218.5, 410.2 217.8 Q 409.8 217.1, 409.7 216.9 L 409.7 224.4 L 408.5 224.4 L 408.5 215.3 L 410.0 215.3 " fill="#0000FF"/>
<path class="atom-29" d="M 31.0 248.4 Q 31.0 246.2, 32.1 245.0 Q 33.2 243.8, 35.2 243.8 Q 37.2 243.8, 38.3 245.0 Q 39.3 246.2, 39.3 248.4 Q 39.3 250.6, 38.3 251.9 Q 37.2 253.1, 35.2 253.1 Q 33.2 253.1, 32.1 251.9 Q 31.0 250.6, 31.0 248.4 M 35.2 252.1 Q 36.6 252.1, 37.3 251.2 Q 38.1 250.2, 38.1 248.4 Q 38.1 246.6, 37.3 245.7 Q 36.6 244.8, 35.2 244.8 Q 33.8 244.8, 33.0 245.7 Q 32.3 246.6, 32.3 248.4 Q 32.3 250.2, 33.0 251.2 Q 33.8 252.1, 35.2 252.1 " fill="#FF0000"/>
<path class="atom-30" d="M 21.9 273.8 L 24.9 278.6 Q 25.2 279.1, 25.6 279.9 Q 26.1 280.8, 26.1 280.8 L 26.1 273.8 L 27.3 273.8 L 27.3 282.9 L 26.1 282.9 L 22.9 277.6 Q 22.5 277.0, 22.1 276.3 Q 21.7 275.6, 21.6 275.4 L 21.6 282.9 L 20.5 282.9 L 20.5 273.8 L 21.9 273.8 " fill="#0000FF"/>
<text x="160" y="440" font-size="16" font-family="Verdana" font-weight="normal" letter-spacing="0" text-anchor="start" fill="black">72734413 PubChem ID</text></svg>
