<?xml version='1.0' encoding='ASCII' standalone='yes'?>
<svg xmlns="http://www.w3.org/2000/svg" xmlns:rdkit="http://www.rdkit.org/xml" xmlns:xlink="http://www.w3.org/1999/xlink" version="1.1" baseProfile="full" xml:space="preserve" width="450px" height="450px" viewBox="0 0 450 450">
<!-- END OF HEADER -->
<rect style="opacity:1.0;fill:#FFFFFF;stroke:none" width="450.0" height="450.0" x="0.0" y="0.0"> </rect>
<path class="bond-0 atom-0 atom-1" d="M 159.7,230.5 L 157.7,247.4" style="fill:none;fill-rule:evenodd;stroke:#000000;stroke-width:2.0px;stroke-linecap:butt;stroke-linejoin:miter;stroke-opacity:1"/>
<path class="bond-0 atom-0 atom-1" d="M 157.7,247.4 L 155.7,264.4" style="fill:none;fill-rule:evenodd;stroke:#CCCC00;stroke-width:2.0px;stroke-linecap:butt;stroke-linejoin:miter;stroke-opacity:1"/>
<path class="bond-1 atom-1 atom-2" d="M 149.8,272.6 L 132.0,276.2" style="fill:none;fill-rule:evenodd;stroke:#CCCC00;stroke-width:2.0px;stroke-linecap:butt;stroke-linejoin:miter;stroke-opacity:1"/>
<path class="bond-1 atom-1 atom-2" d="M 132.0,276.2 L 114.3,279.7" style="fill:none;fill-rule:evenodd;stroke:#000000;stroke-width:2.0px;stroke-linecap:butt;stroke-linejoin:miter;stroke-opacity:1"/>
<path class="bond-2 atom-2 atom-3" d="M 114.3,279.7 L 126.6,319.3" style="fill:none;fill-rule:evenodd;stroke:#000000;stroke-width:2.0px;stroke-linecap:butt;stroke-linejoin:miter;stroke-opacity:1"/>
<path class="bond-3 atom-2 atom-4" d="M 114.3,279.7 L 76.2,296.1" style="fill:none;fill-rule:evenodd;stroke:#000000;stroke-width:2.0px;stroke-linecap:butt;stroke-linejoin:miter;stroke-opacity:1"/>
<path class="bond-4 atom-2 atom-5" d="M 114.3,279.7 L 94.0,243.6" style="fill:none;fill-rule:evenodd;stroke:#000000;stroke-width:2.0px;stroke-linecap:butt;stroke-linejoin:miter;stroke-opacity:1"/>
<path class="bond-5 atom-5 atom-6" d="M 94.0,243.6 L 105.1,231.5" style="fill:none;fill-rule:evenodd;stroke:#000000;stroke-width:2.0px;stroke-linecap:butt;stroke-linejoin:miter;stroke-opacity:1"/>
<path class="bond-5 atom-5 atom-6" d="M 105.1,231.5 L 116.3,219.4" style="fill:none;fill-rule:evenodd;stroke:#0000FF;stroke-width:2.0px;stroke-linecap:butt;stroke-linejoin:miter;stroke-opacity:1"/>
<path class="bond-6 atom-6 atom-7" d="M 125.4,205.9 L 132.4,190.7" style="fill:none;fill-rule:evenodd;stroke:#0000FF;stroke-width:2.0px;stroke-linecap:butt;stroke-linejoin:miter;stroke-opacity:1"/>
<path class="bond-6 atom-6 atom-7" d="M 132.4,190.7 L 139.4,175.5" style="fill:none;fill-rule:evenodd;stroke:#000000;stroke-width:2.0px;stroke-linecap:butt;stroke-linejoin:miter;stroke-opacity:1"/>
<path class="bond-7 atom-7 atom-8" d="M 135.5,176.9 L 129.7,161.2" style="fill:none;fill-rule:evenodd;stroke:#000000;stroke-width:2.0px;stroke-linecap:butt;stroke-linejoin:miter;stroke-opacity:1"/>
<path class="bond-7 atom-7 atom-8" d="M 129.7,161.2 L 123.9,145.6" style="fill:none;fill-rule:evenodd;stroke:#FF0000;stroke-width:2.0px;stroke-linecap:butt;stroke-linejoin:miter;stroke-opacity:1"/>
<path class="bond-7 atom-7 atom-8" d="M 143.3,174.1 L 137.4,158.4" style="fill:none;fill-rule:evenodd;stroke:#000000;stroke-width:2.0px;stroke-linecap:butt;stroke-linejoin:miter;stroke-opacity:1"/>
<path class="bond-7 atom-7 atom-8" d="M 137.4,158.4 L 131.6,142.7" style="fill:none;fill-rule:evenodd;stroke:#FF0000;stroke-width:2.0px;stroke-linecap:butt;stroke-linejoin:miter;stroke-opacity:1"/>
<path class="bond-8 atom-7 atom-9" d="M 139.4,175.5 L 177.0,192.8" style="fill:none;fill-rule:evenodd;stroke:#000000;stroke-width:2.0px;stroke-linecap:butt;stroke-linejoin:miter;stroke-opacity:1"/>
<path class="bond-9 atom-9 atom-10" d="M 177.0,192.8 L 192.2,185.0 L 193.6,188.9 Z" style="fill:#000000;fill-rule:evenodd;fill-opacity:1;stroke:#000000;stroke-width:1.0px;stroke-linecap:butt;stroke-linejoin:miter;stroke-opacity:1;"/>
<path class="bond-9 atom-9 atom-10" d="M 192.2,185.0 L 210.1,184.9 L 207.3,177.2 Z" style="fill:#0000FF;fill-rule:evenodd;fill-opacity:1;stroke:#0000FF;stroke-width:1.0px;stroke-linecap:butt;stroke-linejoin:miter;stroke-opacity:1;"/>
<path class="bond-9 atom-9 atom-10" d="M 192.2,185.0 L 193.6,188.9 L 210.1,184.9 Z" style="fill:#0000FF;fill-rule:evenodd;fill-opacity:1;stroke:#0000FF;stroke-width:1.0px;stroke-linecap:butt;stroke-linejoin:miter;stroke-opacity:1;"/>
<path class="bond-10 atom-10 atom-11" d="M 221.7,183.2 L 234.7,194.1" style="fill:none;fill-rule:evenodd;stroke:#0000FF;stroke-width:2.0px;stroke-linecap:butt;stroke-linejoin:miter;stroke-opacity:1"/>
<path class="bond-10 atom-10 atom-11" d="M 234.7,194.1 L 247.8,204.9" style="fill:none;fill-rule:evenodd;stroke:#000000;stroke-width:2.0px;stroke-linecap:butt;stroke-linejoin:miter;stroke-opacity:1"/>
<path class="bond-11 atom-11 atom-12" d="M 251.8,205.6 L 249.0,222.4" style="fill:none;fill-rule:evenodd;stroke:#000000;stroke-width:2.0px;stroke-linecap:butt;stroke-linejoin:miter;stroke-opacity:1"/>
<path class="bond-11 atom-11 atom-12" d="M 249.0,222.4 L 246.1,239.1" style="fill:none;fill-rule:evenodd;stroke:#FF0000;stroke-width:2.0px;stroke-linecap:butt;stroke-linejoin:miter;stroke-opacity:1"/>
<path class="bond-11 atom-11 atom-12" d="M 243.7,204.2 L 240.8,221.0" style="fill:none;fill-rule:evenodd;stroke:#000000;stroke-width:2.0px;stroke-linecap:butt;stroke-linejoin:miter;stroke-opacity:1"/>
<path class="bond-11 atom-11 atom-12" d="M 240.8,221.0 L 237.9,237.7" style="fill:none;fill-rule:evenodd;stroke:#FF0000;stroke-width:2.0px;stroke-linecap:butt;stroke-linejoin:miter;stroke-opacity:1"/>
<path class="bond-12 atom-11 atom-13" d="M 247.8,204.9 L 286.6,190.5" style="fill:none;fill-rule:evenodd;stroke:#000000;stroke-width:2.0px;stroke-linecap:butt;stroke-linejoin:miter;stroke-opacity:1"/>
<path class="bond-13 atom-13 atom-14" d="M 288.2,185.2 L 286.9,185.0" style="fill:none;fill-rule:evenodd;stroke:#000000;stroke-width:1.0px;stroke-linecap:butt;stroke-linejoin:miter;stroke-opacity:1"/>
<path class="bond-13 atom-13 atom-14" d="M 289.8,180.0 L 287.1,179.5" style="fill:none;fill-rule:evenodd;stroke:#000000;stroke-width:1.0px;stroke-linecap:butt;stroke-linejoin:miter;stroke-opacity:1"/>
<path class="bond-13 atom-13 atom-14" d="M 291.4,174.7 L 287.3,174.0" style="fill:none;fill-rule:evenodd;stroke:#000000;stroke-width:1.0px;stroke-linecap:butt;stroke-linejoin:miter;stroke-opacity:1"/>
<path class="bond-13 atom-13 atom-14" d="M 293.0,169.4 L 287.6,168.5" style="fill:none;fill-rule:evenodd;stroke:#0000FF;stroke-width:1.0px;stroke-linecap:butt;stroke-linejoin:miter;stroke-opacity:1"/>
<path class="bond-13 atom-13 atom-14" d="M 294.6,164.2 L 287.8,163.0" style="fill:none;fill-rule:evenodd;stroke:#0000FF;stroke-width:1.0px;stroke-linecap:butt;stroke-linejoin:miter;stroke-opacity:1"/>
<path class="bond-13 atom-13 atom-14" d="M 296.2,158.9 L 288.1,157.5" style="fill:none;fill-rule:evenodd;stroke:#0000FF;stroke-width:1.0px;stroke-linecap:butt;stroke-linejoin:miter;stroke-opacity:1"/>
<path class="bond-14 atom-13 atom-15" d="M 286.6,190.5 L 318.5,216.9" style="fill:none;fill-rule:evenodd;stroke:#000000;stroke-width:2.0px;stroke-linecap:butt;stroke-linejoin:miter;stroke-opacity:1"/>
<path class="bond-15 atom-15 atom-16" d="M 318.5,216.9 L 311.5,257.8" style="fill:none;fill-rule:evenodd;stroke:#000000;stroke-width:2.0px;stroke-linecap:butt;stroke-linejoin:miter;stroke-opacity:1"/>
<path class="bond-15 atom-15 atom-16" d="M 325.6,224.5 L 320.7,253.1" style="fill:none;fill-rule:evenodd;stroke:#000000;stroke-width:2.0px;stroke-linecap:butt;stroke-linejoin:miter;stroke-opacity:1"/>
<path class="bond-16 atom-16 atom-17" d="M 311.5,257.8 L 343.4,284.2" style="fill:none;fill-rule:evenodd;stroke:#000000;stroke-width:2.0px;stroke-linecap:butt;stroke-linejoin:miter;stroke-opacity:1"/>
<path class="bond-17 atom-17 atom-18" d="M 343.4,284.2 L 382.3,269.9" style="fill:none;fill-rule:evenodd;stroke:#000000;stroke-width:2.0px;stroke-linecap:butt;stroke-linejoin:miter;stroke-opacity:1"/>
<path class="bond-17 atom-17 atom-18" d="M 346.4,274.3 L 373.6,264.2" style="fill:none;fill-rule:evenodd;stroke:#000000;stroke-width:2.0px;stroke-linecap:butt;stroke-linejoin:miter;stroke-opacity:1"/>
<path class="bond-18 atom-18 atom-19" d="M 382.3,269.9 L 394.8,280.3" style="fill:none;fill-rule:evenodd;stroke:#000000;stroke-width:2.0px;stroke-linecap:butt;stroke-linejoin:miter;stroke-opacity:1"/>
<path class="bond-18 atom-18 atom-19" d="M 394.8,280.3 L 407.4,290.7" style="fill:none;fill-rule:evenodd;stroke:#FF0000;stroke-width:2.0px;stroke-linecap:butt;stroke-linejoin:miter;stroke-opacity:1"/>
<path class="bond-19 atom-18 atom-20" d="M 382.3,269.9 L 389.2,229.0" style="fill:none;fill-rule:evenodd;stroke:#000000;stroke-width:2.0px;stroke-linecap:butt;stroke-linejoin:miter;stroke-opacity:1"/>
<path class="bond-20 atom-20 atom-21" d="M 389.2,229.0 L 357.3,202.6" style="fill:none;fill-rule:evenodd;stroke:#000000;stroke-width:2.0px;stroke-linecap:butt;stroke-linejoin:miter;stroke-opacity:1"/>
<path class="bond-20 atom-20 atom-21" d="M 379.2,231.4 L 356.8,212.9" style="fill:none;fill-rule:evenodd;stroke:#000000;stroke-width:2.0px;stroke-linecap:butt;stroke-linejoin:miter;stroke-opacity:1"/>
<path class="bond-21 atom-5 atom-22" d="M 87.2,242.1 L 87.0,243.5" style="fill:none;fill-rule:evenodd;stroke:#000000;stroke-width:1.0px;stroke-linecap:butt;stroke-linejoin:miter;stroke-opacity:1"/>
<path class="bond-21 atom-5 atom-22" d="M 80.4,240.6 L 80.1,243.4" style="fill:none;fill-rule:evenodd;stroke:#000000;stroke-width:1.0px;stroke-linecap:butt;stroke-linejoin:miter;stroke-opacity:1"/>
<path class="bond-21 atom-5 atom-22" d="M 73.6,239.2 L 73.2,243.2" style="fill:none;fill-rule:evenodd;stroke:#000000;stroke-width:1.0px;stroke-linecap:butt;stroke-linejoin:miter;stroke-opacity:1"/>
<path class="bond-21 atom-5 atom-22" d="M 66.9,237.7 L 66.2,243.1" style="fill:none;fill-rule:evenodd;stroke:#000000;stroke-width:1.0px;stroke-linecap:butt;stroke-linejoin:miter;stroke-opacity:1"/>
<path class="bond-21 atom-5 atom-22" d="M 60.1,236.2 L 59.3,243.0" style="fill:none;fill-rule:evenodd;stroke:#000000;stroke-width:1.0px;stroke-linecap:butt;stroke-linejoin:miter;stroke-opacity:1"/>
<path class="bond-21 atom-5 atom-22" d="M 53.3,234.7 L 52.4,242.8" style="fill:none;fill-rule:evenodd;stroke:#000000;stroke-width:1.0px;stroke-linecap:butt;stroke-linejoin:miter;stroke-opacity:1"/>
<path class="bond-22 atom-22 atom-23" d="M 52.8,238.8 L 46.2,223.5" style="fill:none;fill-rule:evenodd;stroke:#000000;stroke-width:2.0px;stroke-linecap:butt;stroke-linejoin:miter;stroke-opacity:1"/>
<path class="bond-22 atom-22 atom-23" d="M 46.2,223.5 L 39.6,208.2" style="fill:none;fill-rule:evenodd;stroke:#FF0000;stroke-width:2.0px;stroke-linecap:butt;stroke-linejoin:miter;stroke-opacity:1"/>
<path class="bond-23 atom-22 atom-24" d="M 56.2,241.3 L 46.5,254.2" style="fill:none;fill-rule:evenodd;stroke:#000000;stroke-width:2.0px;stroke-linecap:butt;stroke-linejoin:miter;stroke-opacity:1"/>
<path class="bond-23 atom-22 atom-24" d="M 46.5,254.2 L 36.8,267.2" style="fill:none;fill-rule:evenodd;stroke:#FF0000;stroke-width:2.0px;stroke-linecap:butt;stroke-linejoin:miter;stroke-opacity:1"/>
<path class="bond-23 atom-22 atom-24" d="M 49.5,236.3 L 39.8,249.3" style="fill:none;fill-rule:evenodd;stroke:#000000;stroke-width:2.0px;stroke-linecap:butt;stroke-linejoin:miter;stroke-opacity:1"/>
<path class="bond-23 atom-22 atom-24" d="M 39.8,249.3 L 30.2,262.2" style="fill:none;fill-rule:evenodd;stroke:#FF0000;stroke-width:2.0px;stroke-linecap:butt;stroke-linejoin:miter;stroke-opacity:1"/>
<path class="bond-24 atom-6 atom-0" d="M 127.9,215.8 L 143.8,223.1" style="fill:none;fill-rule:evenodd;stroke:#0000FF;stroke-width:2.0px;stroke-linecap:butt;stroke-linejoin:miter;stroke-opacity:1"/>
<path class="bond-24 atom-6 atom-0" d="M 143.8,223.1 L 159.7,230.5" style="fill:none;fill-rule:evenodd;stroke:#000000;stroke-width:2.0px;stroke-linecap:butt;stroke-linejoin:miter;stroke-opacity:1"/>
<path class="bond-25 atom-21 atom-15" d="M 357.3,202.6 L 318.5,216.9" style="fill:none;fill-rule:evenodd;stroke:#000000;stroke-width:2.0px;stroke-linecap:butt;stroke-linejoin:miter;stroke-opacity:1"/>
<path class="bond-26 atom-9 atom-0" d="M 177.0,192.8 L 159.7,230.5" style="fill:none;fill-rule:evenodd;stroke:#000000;stroke-width:2.0px;stroke-linecap:butt;stroke-linejoin:miter;stroke-opacity:1"/>
<path class="bond-27 atom-0 atom-25" d="M 164.3,232.8 L 164.8,230.8" style="fill:none;fill-rule:evenodd;stroke:#000000;stroke-width:1.0px;stroke-linecap:butt;stroke-linejoin:miter;stroke-opacity:1"/>
<path class="bond-27 atom-0 atom-25" d="M 168.8,235.1 L 169.9,231.2" style="fill:none;fill-rule:evenodd;stroke:#000000;stroke-width:1.0px;stroke-linecap:butt;stroke-linejoin:miter;stroke-opacity:1"/>
<path class="bond-27 atom-0 atom-25" d="M 173.4,237.5 L 175.0,231.6" style="fill:none;fill-rule:evenodd;stroke:#000000;stroke-width:1.0px;stroke-linecap:butt;stroke-linejoin:miter;stroke-opacity:1"/>
<path class="bond-27 atom-0 atom-25" d="M 177.9,239.8 L 180.1,231.9" style="fill:none;fill-rule:evenodd;stroke:#000000;stroke-width:1.0px;stroke-linecap:butt;stroke-linejoin:miter;stroke-opacity:1"/>
<path class="atom-1" d="M 151.6 275.6 Q 151.7 275.7, 152.3 275.9 Q 152.8 276.1, 153.4 276.3 Q 154.0 276.4, 154.6 276.4 Q 155.7 276.4, 156.4 275.9 Q 157.0 275.3, 157.0 274.4 Q 157.0 273.8, 156.7 273.4 Q 156.4 273.0, 155.9 272.7 Q 155.4 272.5, 154.5 272.3 Q 153.5 272.0, 152.9 271.7 Q 152.3 271.4, 151.8 270.7 Q 151.4 270.1, 151.4 269.0 Q 151.4 267.6, 152.4 266.7 Q 153.4 265.8, 155.4 265.8 Q 156.7 265.8, 158.3 266.4 L 157.9 267.7 Q 156.5 267.1, 155.4 267.1 Q 154.3 267.1, 153.6 267.6 Q 153.0 268.0, 153.0 268.8 Q 153.0 269.5, 153.4 269.9 Q 153.7 270.2, 154.1 270.5 Q 154.6 270.7, 155.4 270.9 Q 156.5 271.3, 157.1 271.6 Q 157.7 271.9, 158.2 272.6 Q 158.7 273.3, 158.7 274.4 Q 158.7 276.0, 157.6 276.9 Q 156.5 277.8, 154.7 277.8 Q 153.6 277.8, 152.8 277.5 Q 152.1 277.3, 151.1 276.9 L 151.6 275.6 " fill="#CCCC00"/>
<path class="atom-6" d="M 119.5 207.3 L 123.3 213.5 Q 123.7 214.1, 124.3 215.2 Q 124.9 216.3, 125.0 216.4 L 125.0 207.3 L 126.5 207.3 L 126.5 219.0 L 124.9 219.0 L 120.8 212.2 Q 120.3 211.4, 119.8 210.5 Q 119.3 209.6, 119.1 209.3 L 119.1 219.0 L 117.6 219.0 L 117.6 207.3 L 119.5 207.3 " fill="#0000FF"/>
<path class="atom-8" d="M 119.6 136.7 Q 119.6 133.9, 121.0 132.3 Q 122.4 130.7, 125.0 130.7 Q 127.6 130.7, 129.0 132.3 Q 130.4 133.9, 130.4 136.7 Q 130.4 139.5, 129.0 141.2 Q 127.6 142.8, 125.0 142.8 Q 122.4 142.8, 121.0 141.2 Q 119.6 139.5, 119.6 136.7 M 125.0 141.4 Q 126.8 141.4, 127.7 140.2 Q 128.7 139.0, 128.7 136.7 Q 128.7 134.4, 127.7 133.2 Q 126.8 132.0, 125.0 132.0 Q 123.2 132.0, 122.2 133.2 Q 121.3 134.4, 121.3 136.7 Q 121.3 139.1, 122.2 140.2 Q 123.2 141.4, 125.0 141.4 " fill="#FF0000"/>
<path class="atom-10" d="M 213.3 172.6 L 217.1 178.8 Q 217.5 179.4, 218.1 180.5 Q 218.7 181.6, 218.8 181.7 L 218.8 172.6 L 220.3 172.6 L 220.3 184.3 L 218.7 184.3 L 214.6 177.5 Q 214.1 176.7, 213.6 175.8 Q 213.1 174.9, 212.9 174.6 L 212.9 184.3 L 211.4 184.3 L 211.4 172.6 L 213.3 172.6 " fill="#0000FF"/>
<path class="atom-10" d="M 211.3 159.6 L 212.9 159.6 L 212.9 164.6 L 218.9 164.6 L 218.9 159.6 L 220.5 159.6 L 220.5 171.4 L 218.9 171.4 L 218.9 166.0 L 212.9 166.0 L 212.9 171.4 L 211.3 171.4 L 211.3 159.6 " fill="#0000FF"/>
<path class="atom-12" d="M 235.4 245.8 Q 235.4 242.9, 236.8 241.4 Q 238.2 239.8, 240.8 239.8 Q 243.4 239.8, 244.8 241.4 Q 246.2 242.9, 246.2 245.8 Q 246.2 248.6, 244.8 250.2 Q 243.4 251.8, 240.8 251.8 Q 238.2 251.8, 236.8 250.2 Q 235.4 248.6, 235.4 245.8 M 240.8 250.5 Q 242.6 250.5, 243.5 249.3 Q 244.5 248.1, 244.5 245.8 Q 244.5 243.4, 243.5 242.3 Q 242.6 241.1, 240.8 241.1 Q 239.0 241.1, 238.0 242.3 Q 237.1 243.4, 237.1 245.8 Q 237.1 248.1, 238.0 249.3 Q 239.0 250.5, 240.8 250.5 " fill="#FF0000"/>
<path class="atom-14" d="M 291.0 143.8 L 294.8 150.0 Q 295.2 150.6, 295.8 151.7 Q 296.4 152.8, 296.5 152.9 L 296.5 143.8 L 298.0 143.8 L 298.0 155.5 L 296.4 155.5 L 292.3 148.7 Q 291.8 147.9, 291.3 147.0 Q 290.8 146.1, 290.7 145.8 L 290.7 155.5 L 289.1 155.5 L 289.1 143.8 L 291.0 143.8 " fill="#0000FF"/>
<path class="atom-14" d="M 299.4 143.8 L 301.0 143.8 L 301.0 148.8 L 307.0 148.8 L 307.0 143.8 L 308.6 143.8 L 308.6 155.5 L 307.0 155.5 L 307.0 150.1 L 301.0 150.1 L 301.0 155.5 L 299.4 155.5 L 299.4 143.8 " fill="#0000FF"/>
<path class="atom-14" d="M 310.0 155.1 Q 310.3 154.4, 311.0 154.0 Q 311.7 153.6, 312.6 153.6 Q 313.8 153.6, 314.4 154.2 Q 315.1 154.8, 315.1 155.9 Q 315.1 157.1, 314.2 158.2 Q 313.4 159.2, 311.6 160.5 L 315.2 160.5 L 315.2 161.4 L 310.0 161.4 L 310.0 160.7 Q 311.4 159.6, 312.3 158.9 Q 313.2 158.1, 313.6 157.4 Q 314.0 156.7, 314.0 156.0 Q 314.0 155.3, 313.6 154.8 Q 313.2 154.4, 312.6 154.4 Q 312.0 154.4, 311.6 154.7 Q 311.1 154.9, 310.8 155.5 L 310.0 155.1 " fill="#0000FF"/>
<path class="atom-19" d="M 408.8 296.3 Q 408.8 293.5, 410.2 292.0 Q 411.5 290.4, 414.1 290.4 Q 416.8 290.4, 418.1 292.0 Q 419.5 293.5, 419.5 296.3 Q 419.5 299.2, 418.1 300.8 Q 416.7 302.4, 414.1 302.4 Q 411.6 302.4, 410.2 300.8 Q 408.8 299.2, 408.8 296.3 M 414.1 301.1 Q 415.9 301.1, 416.9 299.9 Q 417.9 298.7, 417.9 296.3 Q 417.9 294.0, 416.9 292.9 Q 415.9 291.7, 414.1 291.7 Q 412.4 291.7, 411.4 292.9 Q 410.4 294.0, 410.4 296.3 Q 410.4 298.7, 411.4 299.9 Q 412.4 301.1, 414.1 301.1 " fill="#FF0000"/>
<path class="atom-19" d="M 420.4 290.5 L 422.0 290.5 L 422.0 295.5 L 428.0 295.5 L 428.0 290.5 L 429.5 290.5 L 429.5 302.2 L 428.0 302.2 L 428.0 296.8 L 422.0 296.8 L 422.0 302.2 L 420.4 302.2 L 420.4 290.5 " fill="#FF0000"/>
<path class="atom-23" d="M 20.5 194.9 L 22.0 194.9 L 22.0 199.9 L 28.0 199.9 L 28.0 194.9 L 29.6 194.9 L 29.6 206.7 L 28.0 206.7 L 28.0 201.2 L 22.0 201.2 L 22.0 206.7 L 20.5 206.7 L 20.5 194.9 " fill="#FF0000"/>
<path class="atom-23" d="M 31.0 200.8 Q 31.0 198.0, 32.4 196.4 Q 33.8 194.8, 36.4 194.8 Q 39.0 194.8, 40.4 196.4 Q 41.8 198.0, 41.8 200.8 Q 41.8 203.6, 40.4 205.2 Q 39.0 206.8, 36.4 206.8 Q 33.8 206.8, 32.4 205.2 Q 31.0 203.6, 31.0 200.8 M 36.4 205.5 Q 38.2 205.5, 39.2 204.3 Q 40.2 203.1, 40.2 200.8 Q 40.2 198.5, 39.2 197.3 Q 38.2 196.1, 36.4 196.1 Q 34.6 196.1, 33.7 197.3 Q 32.7 198.4, 32.7 200.8 Q 32.7 203.1, 33.7 204.3 Q 34.6 205.5, 36.4 205.5 " fill="#FF0000"/>
<path class="atom-24" d="M 22.7 272.0 Q 22.7 269.2, 24.1 267.6 Q 25.5 266.1, 28.1 266.1 Q 30.7 266.1, 32.1 267.6 Q 33.5 269.2, 33.5 272.0 Q 33.5 274.9, 32.1 276.5 Q 30.6 278.1, 28.1 278.1 Q 25.5 278.1, 24.1 276.5 Q 22.7 274.9, 22.7 272.0 M 28.1 276.8 Q 29.9 276.8, 30.8 275.6 Q 31.8 274.4, 31.8 272.0 Q 31.8 269.7, 30.8 268.6 Q 29.9 267.4, 28.1 267.4 Q 26.3 267.4, 25.3 268.6 Q 24.3 269.7, 24.3 272.0 Q 24.3 274.4, 25.3 275.6 Q 26.3 276.8, 28.1 276.8 " fill="#FF0000"/>
<path class="atom-25" d="M 181.7 232.1 L 183.3 232.1 L 183.3 237.0 L 189.3 237.0 L 189.3 232.1 L 190.9 232.1 L 190.9 243.8 L 189.3 243.8 L 189.3 238.4 L 183.3 238.4 L 183.3 243.8 L 181.7 243.8 L 181.7 232.1 " fill="#000000"/>
<text x="180" y="440" font-size="16" font-family="Verdana" font-weight="normal" letter-spacing="0" text-anchor="start" fill="black">33613 PubChem ID</text></svg>
